<svg width="820" height="693" viewBox="0 0 820 693" fill="none" xmlns="http://www.w3.org/2000/svg">
<path d="M606.302 615.398L605.5 614.444C605.499 603.172 606.003 492.311 626.27 522.089C640.358 542.788 632.204 584.735 632.204 584.735L654.456 562.461C654.456 562.461 632.344 454.018 663.357 473.364C683.967 486.221 685.609 529.049 685.609 529.049L700.443 499.815C700.443 499.815 653.889 401.881 685.609 416.287C706.893 425.953 716.761 465.011 716.761 465.011L727.525 434.384C727.525 434.384 659.868 357.09 694.509 356.425C718.76 355.959 743.843 395.405 743.843 395.405L752.364 366.17C752.364 366.17 664.227 296.274 700.443 293.779C723.734 292.175 757.195 321.622 757.195 321.622V293.779C757.195 293.779 660.207 236.668 694.509 226.957C717.89 220.338 752.364 249.231 752.364 249.231V218.604C752.364 218.604 643.909 170.027 679.675 164.311C702.612 160.645 743.464 179.624 743.464 179.624L736.046 151.782C736.046 151.782 629.78 132.526 657.423 112.802C675.869 99.6397 716.761 112.802 716.761 112.802L706.377 96.0964C706.377 96.0964 597.54 75.3084 626.27 55.7246C645.019 42.9444 685.609 55.7246 685.609 55.7246C685.609 55.7246 653.236 43.6801 648.522 26.4898C646.501 19.1188 648.522 7 648.522 7C648.522 7 663.39 8.87387 670.774 13.9607C683.783 22.9226 685.609 50.1561 685.609 50.1561C685.609 50.1561 699.891 24.0928 716.761 20.9213C745.87 15.4489 709.344 91.92 709.344 91.92L722.695 112.802C722.695 112.802 734.887 83.8254 752.364 77.9987C781.625 68.2437 740.497 151.782 740.497 151.782L746.431 179.624C746.431 179.624 759.413 142.349 783.517 140.645C817.326 138.254 758.298 218.604 758.298 218.604V249.231C758.298 249.231 779.777 219.392 801.319 214.428C837.299 206.135 760.161 293.779 760.161 293.779V321.622C760.161 321.622 785.959 289.936 810.219 289.603C847.983 289.084 758.298 366.17 758.298 366.17L746.81 395.405C746.81 395.405 782.529 370.996 805.769 377.307C841.324 386.962 733.079 434.384 733.079 434.384L721.212 465.011C721.212 465.011 762.798 442.379 786.484 452.482C820.139 466.837 706.377 499.815 706.377 499.815L690.059 529.049C690.059 529.049 726.942 519.441 746.431 529.049C778.623 544.92 660.39 562.461 660.39 562.461L632.204 588.911C632.204 588.911 680.628 580.226 700.443 597.264C727.015 620.111 616.819 615.853 606.302 615.398Z" fill="#FAD70C" stroke="black"/>
<path d="M267.5 693H143.5L188.252 669.5L143.5 646H210.628V683.6H267.5V693Z" fill="#C01712"/>
<path d="M221.816 678.9H267.5V669.5H221.816V678.9Z" fill="#C01712"/>
<path d="M562.5 692H686.5L641.748 668.5L686.5 645H619.372V682.6H562.5V692Z" fill="#C01712"/>
<path d="M608.184 677.9H562.5V668.5H608.184V677.9Z" fill="#C01712"/>
<path d="M215.219 592.186V656C215.219 661.523 219.696 666 225.219 666H606.5C612.023 666 616.5 661.523 616.5 656V602.186C616.5 596.663 612.023 592.186 606.5 592.186H215.219Z" fill="#C01712"/>
<path d="M214.743 591.817C214.639 591.995 214.775 592.216 214.98 592.202C215.138 592.192 215.219 592.186 215.219 592.186C215.219 592.186 215.22 592.105 215.22 591.947C215.22 591.685 214.875 591.592 214.743 591.817Z" fill="#C01712"/>
<path d="M213.698 615.398L214.5 614.444C214.501 603.172 213.997 492.311 193.73 522.089C179.642 542.788 187.796 584.735 187.796 584.735L165.544 562.461C165.544 562.461 187.656 454.018 156.643 473.364C136.033 486.221 134.391 529.049 134.391 529.049L119.557 499.815C119.557 499.815 166.111 401.881 134.391 416.287C113.107 425.953 103.239 465.011 103.239 465.011L92.4747 434.384C92.4747 434.384 160.132 357.09 125.491 356.425C101.24 355.959 76.1566 395.405 76.1566 395.405L67.6356 366.17C67.6356 366.17 155.773 296.274 119.557 293.779C96.266 292.175 62.8055 321.622 62.8055 321.622V293.779C62.8055 293.779 159.793 236.668 125.491 226.957C102.11 220.338 67.6356 249.231 67.6356 249.231V218.604C67.6356 218.604 176.091 170.027 140.325 164.311C117.388 160.645 76.5364 179.624 76.5364 179.624L83.9537 151.782C83.9537 151.782 190.22 132.526 162.577 112.802C144.131 99.6397 103.239 112.802 103.239 112.802L113.623 96.0964C113.623 96.0964 222.46 75.3084 193.73 55.7246C174.981 42.9444 134.391 55.7246 134.391 55.7246C134.391 55.7246 166.764 43.6801 171.478 26.4898C173.499 19.1188 171.478 7 171.478 7C171.478 7 156.61 8.87387 149.226 13.9607C136.217 22.9226 134.391 50.1561 134.391 50.1561C134.391 50.1561 120.109 24.0928 103.239 20.9213C74.1297 15.4489 110.656 91.92 110.656 91.92L97.3049 112.802C97.3049 112.802 85.1131 83.8254 67.6356 77.9987C38.375 68.2437 79.5033 151.782 79.5033 151.782L73.5694 179.624C73.5694 179.624 60.5872 142.349 36.4829 140.645C2.67441 138.254 61.7018 218.604 61.7018 218.604V249.231C61.7018 249.231 40.2228 219.392 18.6813 214.428C-17.2994 206.135 59.8385 293.779 59.8385 293.779V321.622C59.8385 321.622 34.0407 289.936 9.78056 289.603C-27.983 289.084 61.7018 366.17 61.7018 366.17L73.1897 395.405C73.1897 395.405 37.471 370.996 14.2309 377.307C-21.324 386.962 86.9206 434.384 86.9206 434.384L98.7884 465.011C98.7884 465.011 57.2023 442.379 33.516 452.482C-0.138999 466.837 113.623 499.815 113.623 499.815L129.941 529.049C129.941 529.049 93.0583 519.441 73.5695 529.049C41.3773 544.92 159.61 562.461 159.61 562.461L187.796 588.911C187.796 588.911 139.372 580.226 119.557 597.264C92.985 620.111 203.181 615.853 213.698 615.398Z" fill="#FAD70C" stroke="black"/>
<path d="M720.5 305C720.5 473.447 583.947 610 415.5 610C247.053 610 110.5 473.447 110.5 305C110.5 136.553 247.053 0 415.5 0C583.947 0 720.5 136.553 720.5 305ZM185.912 305C185.912 431.798 288.702 534.588 415.5 534.588C542.298 534.588 645.088 431.798 645.088 305C645.088 178.202 542.298 75.4117 415.5 75.4117C288.702 75.4117 185.912 178.202 185.912 305Z" fill="#164CAA"/>
<ellipse cx="416.5" cy="157" rx="12" ry="9" fill="#F1470F"/>
<path d="M413.432 238.375C364.643 199.063 344.309 232.385 300.018 228.547M413.432 238.375C448.526 205.473 484.12 232.619 529.414 228.931M413.432 238.375L409.58 378.106M300.018 228.547L287.179 240.366L261.5 241.367V409.727L383.902 403.317C393.93 405.82 409.58 409.727 409.58 409.727C409.58 409.727 429.404 405.82 442.107 403.317L570.5 414V244.785H545.249L531.554 228.931H529.414M300.018 228.547V365.714M300.018 228.547L278.619 253.759V393.489M278.619 393.489L300.018 365.714M278.619 393.489C278.619 393.489 346.665 377.971 388.609 387.507C396.914 389.395 409.58 393.489 409.58 393.489M300.018 365.714C342.805 370.553 362.931 346.912 409.58 378.106M409.58 378.106C442.107 352.467 480.269 370.553 525.562 365.714M409.58 378.106V393.489M525.562 365.714L529.414 228.931M525.562 365.714L549.101 393.489M529.414 228.931L551.669 255.895L549.101 393.489M409.58 393.489C419.608 390.152 435.259 384.943 435.259 384.943C435.259 384.943 504.643 390.152 549.101 393.489" stroke="#280F5A" stroke-width="7"/>
<path d="M363.18 619.92V625.4H355.74V648H348.9V625.4H341.46V619.92H363.18ZM365.453 633.92C365.453 631.147 366.053 628.68 367.253 626.52C368.453 624.333 370.119 622.64 372.253 621.44C374.413 620.213 376.853 619.6 379.573 619.6C382.906 619.6 385.759 620.48 388.133 622.24C390.506 624 392.093 626.4 392.893 629.44H385.373C384.813 628.267 384.013 627.373 382.973 626.76C381.959 626.147 380.799 625.84 379.493 625.84C377.386 625.84 375.679 626.573 374.373 628.04C373.066 629.507 372.413 631.467 372.413 633.92C372.413 636.373 373.066 638.333 374.373 639.8C375.679 641.267 377.386 642 379.493 642C380.799 642 381.959 641.693 382.973 641.08C384.013 640.467 384.813 639.573 385.373 638.4H392.893C392.093 641.44 390.506 643.84 388.133 645.6C385.759 647.333 382.906 648.2 379.573 648.2C376.853 648.2 374.413 647.6 372.253 646.4C370.119 645.173 368.453 643.48 367.253 641.32C366.053 639.16 365.453 636.693 365.453 633.92ZM414.562 643.04H404.082L402.402 648H395.242L405.402 619.92H413.322L423.482 648H416.242L414.562 643.04ZM412.802 637.76L409.322 627.48L405.882 637.76H412.802ZM436.734 648.28C434.68 648.28 432.84 647.947 431.214 647.28C429.587 646.613 428.28 645.627 427.294 644.32C426.334 643.013 425.827 641.44 425.774 639.6H433.054C433.16 640.64 433.52 641.44 434.134 642C434.747 642.533 435.547 642.8 436.534 642.8C437.547 642.8 438.347 642.573 438.934 642.12C439.52 641.64 439.814 640.987 439.814 640.16C439.814 639.467 439.574 638.893 439.094 638.44C438.64 637.987 438.067 637.613 437.374 637.32C436.707 637.027 435.747 636.693 434.494 636.32C432.68 635.76 431.2 635.2 430.054 634.64C428.907 634.08 427.92 633.253 427.094 632.16C426.267 631.067 425.854 629.64 425.854 627.88C425.854 625.267 426.8 623.227 428.694 621.76C430.587 620.267 433.054 619.52 436.094 619.52C439.187 619.52 441.68 620.267 443.574 621.76C445.467 623.227 446.48 625.28 446.614 627.92H439.214C439.16 627.013 438.827 626.307 438.214 625.8C437.6 625.267 436.814 625 435.854 625C435.027 625 434.36 625.227 433.854 625.68C433.347 626.107 433.094 626.733 433.094 627.56C433.094 628.467 433.52 629.173 434.374 629.68C435.227 630.187 436.56 630.733 438.374 631.32C440.187 631.933 441.654 632.52 442.774 633.08C443.92 633.64 444.907 634.453 445.734 635.52C446.56 636.587 446.974 637.96 446.974 639.64C446.974 641.24 446.56 642.693 445.734 644C444.934 645.307 443.76 646.347 442.214 647.12C440.667 647.893 438.84 648.28 436.734 648.28ZM489.823 619.92L482.503 648H474.223L469.743 629.52L465.103 648H456.823L449.703 619.92H457.023L461.063 640.36L466.063 619.92H473.583L478.383 640.36L482.463 619.92H489.823Z" fill="white"/>
<path d="M365.25 288.5C365.25 284.872 364.197 281.321 362.219 278.279C360.241 275.237 357.423 272.835 354.107 271.363C350.79 269.891 347.118 269.412 343.535 269.986C339.952 270.56 336.613 272.161 333.922 274.595C331.231 277.029 329.304 280.192 328.375 283.699C327.446 287.207 327.555 290.908 328.688 294.355C329.821 297.802 331.929 300.846 334.758 303.119C337.587 305.391 341.015 306.793 344.625 307.156V312.875H337.125C336.628 312.875 336.151 313.073 335.799 313.424C335.448 313.776 335.25 314.253 335.25 314.75C335.25 315.247 335.448 315.724 335.799 316.076C336.151 316.427 336.628 316.625 337.125 316.625H344.625V322.25C344.625 322.747 344.823 323.224 345.174 323.576C345.526 323.927 346.003 324.125 346.5 324.125C346.997 324.125 347.474 323.927 347.826 323.576C348.177 323.224 348.375 322.747 348.375 322.25V316.625H355.875C356.372 316.625 356.849 316.427 357.201 316.076C357.552 315.724 357.75 315.247 357.75 314.75C357.75 314.253 357.552 313.776 357.201 313.424C356.849 313.073 356.372 312.875 355.875 312.875H348.375V307.156C352.998 306.686 357.282 304.518 360.399 301.072C363.516 297.626 365.244 293.147 365.25 288.5ZM331.5 288.5C331.5 285.533 332.38 282.633 334.028 280.166C335.676 277.7 338.019 275.777 340.76 274.642C343.501 273.507 346.517 273.209 349.426 273.788C352.336 274.367 355.009 275.796 357.107 277.893C359.204 279.991 360.633 282.664 361.212 285.574C361.791 288.483 361.494 291.499 360.358 294.24C359.223 296.981 357.3 299.324 354.834 300.972C352.367 302.62 349.467 303.5 346.5 303.5C342.523 303.496 338.71 301.914 335.898 299.102C333.086 296.29 331.504 292.477 331.5 288.5Z" fill="#280F5A"/>
<rect x="426" y="266.5" width="44" height="26" rx="1.5" stroke="#280F5A"/>
<path d="M452.688 274.344H443.312C442.94 274.344 442.582 274.492 442.318 274.756C442.054 275.019 441.906 275.377 441.906 275.75V282.312C441.906 282.685 442.054 283.043 442.318 283.307C442.582 283.571 442.94 283.719 443.312 283.719H452.688C453.06 283.719 453.418 283.571 453.682 283.307C453.946 283.043 454.094 282.685 454.094 282.312V275.75C454.094 275.377 453.946 275.019 453.682 274.756C453.418 274.492 453.06 274.344 452.688 274.344ZM453.156 282.312C453.156 282.437 453.107 282.556 453.019 282.644C452.931 282.732 452.812 282.781 452.688 282.781H443.312C443.188 282.781 443.069 282.732 442.981 282.644C442.893 282.556 442.844 282.437 442.844 282.312V275.75C442.844 275.626 442.893 275.506 442.981 275.419C443.069 275.331 443.188 275.281 443.312 275.281H452.688C452.812 275.281 452.931 275.331 453.019 275.419C453.107 275.506 453.156 275.626 453.156 275.75V282.312ZM450.344 285.125C450.344 285.249 450.294 285.369 450.206 285.456C450.119 285.544 449.999 285.594 449.875 285.594H446.125C446.001 285.594 445.881 285.544 445.794 285.456C445.706 285.369 445.656 285.249 445.656 285.125C445.656 285.001 445.706 284.881 445.794 284.794C445.881 284.706 446.001 284.656 446.125 284.656H449.875C449.999 284.656 450.119 284.706 450.206 284.794C450.294 284.881 450.344 285.001 450.344 285.125Z" fill="#280F5A"/>
<rect x="425" y="303.5" width="44" height="26" rx="1.5" stroke="#280F5A"/>
<path d="M441.094 316.406C441.143 316.443 441.199 316.47 441.259 316.485C441.318 316.501 441.38 316.504 441.441 316.495C441.502 316.487 441.561 316.466 441.614 316.435C441.667 316.403 441.713 316.362 441.75 316.313C442.034 315.934 442.402 315.627 442.825 315.415C443.248 315.204 443.714 315.094 444.187 315.094C444.661 315.094 445.127 315.204 445.55 315.415C445.973 315.627 446.341 315.934 446.625 316.313C446.7 316.412 446.811 316.478 446.934 316.495C447.057 316.512 447.182 316.48 447.281 316.406C447.317 316.379 447.348 316.348 447.374 316.313C447.658 315.934 448.026 315.627 448.449 315.415C448.872 315.204 449.339 315.094 449.812 315.094C450.285 315.094 450.751 315.204 451.175 315.415C451.598 315.627 451.966 315.934 452.249 316.313C452.324 316.412 452.435 316.478 452.558 316.495C452.681 316.513 452.806 316.481 452.906 316.406C453.005 316.331 453.071 316.22 453.089 316.097C453.106 315.974 453.074 315.849 452.999 315.749C452.584 315.193 452.031 314.755 451.395 314.479C451.744 314.16 451.988 313.744 452.096 313.284C452.204 312.823 452.17 312.341 451.999 311.901C451.829 311.46 451.528 311.081 451.138 310.814C450.748 310.547 450.287 310.405 449.814 310.405C449.342 310.405 448.88 310.547 448.49 310.814C448.1 311.081 447.8 311.46 447.629 311.901C447.458 312.341 447.425 312.823 447.532 313.284C447.64 313.744 447.885 314.16 448.234 314.479C447.774 314.678 447.357 314.963 447.004 315.318C446.65 314.963 446.233 314.678 445.773 314.479C446.122 314.16 446.367 313.744 446.475 313.284C446.583 312.823 446.549 312.341 446.378 311.901C446.207 311.46 445.907 311.081 445.517 310.814C445.127 310.547 444.665 310.405 444.193 310.405C443.72 310.405 443.259 310.547 442.869 310.814C442.479 311.081 442.179 311.46 442.008 311.901C441.837 312.341 441.803 312.823 441.911 313.284C442.019 313.744 442.263 314.16 442.612 314.479C441.973 314.754 441.417 315.193 441 315.75C440.963 315.799 440.936 315.855 440.921 315.915C440.906 315.975 440.902 316.037 440.911 316.098C440.92 316.159 440.94 316.217 440.972 316.27C441.003 316.323 441.045 316.369 441.094 316.406ZM449.812 311.344C450.091 311.344 450.363 311.426 450.594 311.581C450.825 311.735 451.005 311.955 451.112 312.212C451.218 312.469 451.246 312.752 451.192 313.024C451.137 313.297 451.004 313.548 450.807 313.744C450.61 313.941 450.36 314.075 450.087 314.129C449.814 314.184 449.531 314.156 449.274 314.049C449.017 313.943 448.798 313.763 448.643 313.531C448.489 313.3 448.406 313.028 448.406 312.75C448.406 312.377 448.554 312.019 448.818 311.756C449.082 311.492 449.44 311.344 449.812 311.344ZM444.187 311.344C444.466 311.344 444.738 311.426 444.969 311.581C445.2 311.735 445.38 311.955 445.487 312.212C445.593 312.469 445.621 312.752 445.567 313.024C445.512 313.297 445.379 313.548 445.182 313.744C444.985 313.941 444.735 314.075 444.462 314.129C444.189 314.184 443.906 314.156 443.649 314.049C443.392 313.943 443.173 313.763 443.018 313.531C442.864 313.3 442.781 313.028 442.781 312.75C442.781 312.377 442.929 312.019 443.193 311.756C443.457 311.492 443.815 311.344 444.187 311.344ZM451.395 320.573C451.744 320.254 451.988 319.837 452.096 319.377C452.204 318.917 452.17 318.435 451.999 317.995C451.829 317.554 451.528 317.175 451.138 316.908C450.748 316.641 450.287 316.498 449.814 316.498C449.342 316.498 448.88 316.641 448.49 316.908C448.1 317.175 447.8 317.554 447.629 317.995C447.458 318.435 447.425 318.917 447.532 319.377C447.64 319.837 447.885 320.254 448.234 320.573C447.774 320.772 447.357 321.056 447.004 321.411C446.65 321.056 446.233 320.772 445.773 320.573C446.122 320.254 446.367 319.837 446.475 319.377C446.583 318.917 446.549 318.435 446.378 317.995C446.207 317.554 445.907 317.175 445.517 316.908C445.127 316.641 444.665 316.498 444.193 316.498C443.72 316.498 443.259 316.641 442.869 316.908C442.479 317.175 442.179 317.554 442.008 317.995C441.837 318.435 441.803 318.917 441.911 319.377C442.019 319.837 442.263 320.254 442.612 320.573C441.973 320.848 441.417 321.286 441 321.844C440.963 321.893 440.936 321.949 440.921 322.009C440.906 322.068 440.902 322.13 440.911 322.191C440.92 322.252 440.94 322.311 440.972 322.364C441.003 322.417 441.045 322.463 441.094 322.5C441.143 322.537 441.199 322.564 441.259 322.579C441.318 322.594 441.38 322.598 441.441 322.589C441.502 322.58 441.561 322.56 441.614 322.528C441.667 322.497 441.713 322.456 441.75 322.406C442.034 322.028 442.402 321.721 442.825 321.509C443.248 321.298 443.714 321.188 444.187 321.188C444.661 321.188 445.127 321.298 445.55 321.509C445.973 321.721 446.341 322.028 446.625 322.406C446.7 322.506 446.811 322.571 446.934 322.589C447.057 322.606 447.182 322.574 447.281 322.499C447.317 322.473 447.348 322.442 447.374 322.406C447.658 322.028 448.026 321.721 448.449 321.509C448.872 321.298 449.339 321.188 449.812 321.188C450.285 321.188 450.751 321.298 451.175 321.509C451.598 321.721 451.966 322.028 452.249 322.406C452.324 322.506 452.435 322.571 452.558 322.589C452.681 322.607 452.806 322.574 452.906 322.5C453.005 322.425 453.071 322.314 453.089 322.191C453.106 322.068 453.074 321.943 452.999 321.843C452.584 321.287 452.031 320.849 451.395 320.573ZM444.187 317.438C444.466 317.438 444.738 317.52 444.969 317.675C445.2 317.829 445.38 318.049 445.487 318.306C445.593 318.563 445.621 318.845 445.567 319.118C445.512 319.391 445.379 319.642 445.182 319.838C444.985 320.035 444.735 320.169 444.462 320.223C444.189 320.277 443.906 320.249 443.649 320.143C443.392 320.037 443.173 319.856 443.018 319.625C442.864 319.394 442.781 319.122 442.781 318.844C442.781 318.471 442.929 318.113 443.193 317.849C443.457 317.586 443.815 317.438 444.187 317.438ZM449.812 317.438C450.091 317.438 450.363 317.52 450.594 317.675C450.825 317.829 451.005 318.049 451.112 318.306C451.218 318.563 451.246 318.845 451.192 319.118C451.137 319.391 451.004 319.642 450.807 319.838C450.61 320.035 450.36 320.169 450.087 320.223C449.814 320.277 449.531 320.249 449.274 320.143C449.017 320.037 448.798 319.856 448.643 319.625C448.489 319.394 448.406 319.122 448.406 318.844C448.406 318.471 448.554 318.113 448.818 317.849C449.082 317.586 449.44 317.438 449.812 317.438Z" fill="#280F5A"/>
<rect x="475" y="266.5" width="44" height="26" rx="1.5" stroke="#280F5A"/>
<path d="M503.426 277.059L499.91 273.543C499.866 273.5 499.815 273.465 499.758 273.442C499.701 273.418 499.64 273.406 499.578 273.406C499.517 273.406 499.456 273.418 499.399 273.442C499.342 273.465 499.29 273.5 499.247 273.543L491.675 281.115C491.183 281.607 490.906 282.275 490.906 282.971C490.906 283.666 491.183 284.334 491.675 284.826C492.167 285.318 492.834 285.594 493.53 285.594C494.226 285.594 494.893 285.318 495.385 284.826L501.941 278.27L503.242 277.836C503.318 277.811 503.386 277.766 503.44 277.708C503.494 277.649 503.532 277.577 503.55 277.499C503.569 277.421 503.567 277.34 503.545 277.263C503.523 277.186 503.482 277.116 503.426 277.06V277.059ZM494.722 284.162C494.403 284.469 493.978 284.638 493.536 284.634C493.094 284.63 492.672 284.453 492.36 284.141C492.047 283.828 491.87 283.406 491.866 282.964C491.862 282.522 492.031 282.097 492.338 281.779L494.025 280.091C494.522 279.921 495.3 279.857 496.315 280.384C496.936 280.709 497.497 280.853 497.988 280.896L494.722 284.162ZM501.539 277.415C501.47 277.438 501.408 277.476 501.356 277.528L499.038 279.846C498.541 280.016 497.763 280.081 496.748 279.553C496.127 279.229 495.566 279.085 495.075 279.042L499.578 274.538L502.226 277.186L501.539 277.415Z" fill="#280F5A"/>
<rect x="474" y="303.5" width="44" height="26" rx="1.5" stroke="#280F5A"/>
<path d="M497.406 314.156C497.777 314.156 498.14 314.046 498.448 313.84C498.756 313.634 498.997 313.341 499.138 312.999C499.28 312.656 499.317 312.279 499.245 311.915C499.173 311.552 498.994 311.218 498.732 310.955C498.47 310.693 498.136 310.515 497.772 310.442C497.408 310.37 497.031 310.407 496.689 310.549C496.346 310.691 496.053 310.931 495.847 311.24C495.641 311.548 495.531 311.91 495.531 312.281C495.531 312.779 495.729 313.255 496.08 313.607C496.432 313.959 496.909 314.156 497.406 314.156ZM497.406 311.344C497.592 311.344 497.773 311.399 497.927 311.502C498.081 311.605 498.201 311.751 498.272 311.922C498.343 312.094 498.362 312.282 498.326 312.464C498.289 312.646 498.2 312.813 498.069 312.944C497.938 313.075 497.771 313.165 497.589 313.201C497.407 313.237 497.219 313.218 497.047 313.147C496.876 313.076 496.73 312.956 496.627 312.802C496.524 312.648 496.469 312.467 496.469 312.281C496.469 312.033 496.567 311.794 496.743 311.618C496.919 311.443 497.158 311.344 497.406 311.344ZM501.35 317.243C501.314 317.259 500.911 317.435 500.198 317.435C499.386 317.435 498.173 317.208 496.641 316.263C496.408 316.925 496.106 317.56 495.739 318.158C496.398 318.361 497.018 318.674 497.573 319.085C498.691 319.937 499.281 321.149 499.281 322.594C499.281 322.718 499.232 322.837 499.144 322.925C499.056 323.013 498.937 323.063 498.812 323.063C498.688 323.063 498.569 323.013 498.481 322.925C498.393 322.837 498.344 322.718 498.344 322.594C498.344 320.15 496.311 319.271 495.171 318.97C495.139 319.011 495.106 319.052 495.072 319.093C493.922 320.487 492.48 321.213 490.875 321.213C490.693 321.214 490.51 321.205 490.328 321.188C490.204 321.175 490.089 321.114 490.01 321.017C489.931 320.92 489.894 320.796 489.906 320.672C489.919 320.548 489.98 320.433 490.077 320.354C490.173 320.275 490.297 320.238 490.422 320.25C491.941 320.401 493.262 319.811 494.348 318.492C495.079 317.605 495.578 316.523 495.827 315.738C493.547 314.411 492.09 315.541 492.074 315.553C492.026 315.594 491.971 315.625 491.911 315.644C491.851 315.663 491.788 315.669 491.726 315.663C491.663 315.657 491.602 315.639 491.547 315.609C491.492 315.579 491.443 315.539 491.404 315.49C491.365 315.441 491.336 315.384 491.319 315.324C491.302 315.264 491.297 315.2 491.305 315.138C491.313 315.076 491.333 315.016 491.364 314.961C491.396 314.907 491.438 314.86 491.488 314.822C491.576 314.752 493.669 313.123 496.733 315.207C499.397 317.018 500.948 316.397 500.962 316.39C501.018 316.363 501.079 316.348 501.141 316.345C501.203 316.343 501.265 316.352 501.324 316.374C501.382 316.395 501.435 316.428 501.481 316.47C501.527 316.512 501.563 316.563 501.589 316.619C501.615 316.676 501.629 316.737 501.631 316.799C501.633 316.861 501.622 316.923 501.6 316.981C501.578 317.039 501.545 317.092 501.502 317.137C501.459 317.182 501.408 317.218 501.351 317.243H501.35Z" fill="#280F5A"/>
<path d="M423.208 194.003C421.32 197.198 419.736 198.708 416.409 200.307C416.15 200.431 415.848 200.434 415.587 200.314C412.629 198.952 411.118 197.522 409.283 194.047C409.107 193.714 408.763 193.5 408.386 193.5H387C386.448 193.5 386 193.052 386 192.5V180.025C386 179.716 385.79 179.448 385.491 179.373L385.327 179.332C384.639 179.16 384.699 178.163 385.403 178.075C385.739 178.033 385.984 177.731 385.962 177.393C385.142 164.575 383.623 159.141 378.058 158.158C377.373 158.037 376.961 157.263 377.329 156.673L377.764 155.977C378.12 155.407 379 155.66 379 156.331C379 156.701 379.299 157 379.669 157H404.882C405.261 157 405.607 157.214 405.776 157.553L406.474 158.949C406.865 159.73 407.999 159.67 408.305 158.853L408.757 157.649C408.903 157.259 409.276 157 409.693 157H422.807C423.224 157 423.597 157.259 423.743 157.649L424.064 158.503C424.388 159.368 425.612 159.368 425.936 158.503L426.257 157.649C426.403 157.259 426.776 157 427.193 157H451.75C452.164 157 452.5 156.664 452.5 156.25C452.5 155.529 453.418 155.223 453.85 155.8L454.428 156.57C454.897 157.196 454.496 158.099 453.733 158.269C448.218 159.492 446.424 164.163 446.016 177.452C446.006 177.762 446.228 178.038 446.534 178.089C447.172 178.195 447.242 179.086 446.628 179.291L446.456 179.348C446.183 179.439 446 179.693 446 179.98V192.5C446 193.052 445.552 193.5 445 193.5H424.081C423.722 193.5 423.39 193.694 423.208 194.003Z" fill="#C1173E" stroke="black" stroke-width="0.5"/>
<path d="M431.5 133C431.5 136.978 429.92 140.794 427.107 143.607C424.294 146.42 420.478 148 416.5 148C412.522 148 408.706 146.42 405.893 143.607C403.08 140.794 401.5 136.978 401.5 133L416.5 133H431.5Z" fill="#080508"/>
<path d="M431.5 133C431.5 129.022 429.92 125.206 427.107 122.393C424.294 119.58 420.478 118 416.5 118C412.522 118 408.706 119.58 405.893 122.393C403.08 125.206 401.5 129.022 401.5 133L416.5 133H431.5Z" fill="#0B40CC"/>
<rect width="59" height="1" transform="translate(386.5 192)" fill="black"/>
<rect width="59" height="1" transform="translate(386.5 191)" fill="white" fill-opacity="0.9"/>
<path d="M411.567 140.976L415.934 147.603C416.055 147.787 416.327 147.782 416.441 147.593L420.439 140.975C420.478 140.911 420.492 140.834 420.476 140.76L416.111 119.494C416.045 119.172 415.583 119.175 415.522 119.499L411.522 140.756C411.508 140.832 411.524 140.911 411.567 140.976Z" fill="#F9EF2B"/>
<path d="M425.397 471.108C426.153 471.108 426.849 471.254 427.485 471.545C429.372 472.492 430.486 474.292 430.5 476.299V490.124C430.146 492.322 427.623 491.724 427.562 490.124V477.07C427.337 476.325 425.895 476.634 425.861 477.07V507.033C425.494 510.092 421.529 509.194 421.428 506.981V488.634C421.174 487.45 419.506 487.988 419.469 488.685C419.54 494.784 419.521 500.883 419.521 506.981C419.125 510.025 415.179 509.246 415.088 507.033L415.036 477.07C414.805 476.341 413.469 476.621 413.438 477.07V490.124C413.084 492.322 410.561 491.724 410.5 490.124V476.299C410.536 474.377 411.242 472.453 412.923 471.545C413.473 471.254 414.143 471.108 414.933 471.108L425.397 471.108ZM425.345 464.83C425.345 467.497 423.176 469.659 420.501 469.659C417.826 469.659 415.657 467.497 415.657 464.83C415.657 462.162 417.826 460 420.501 460C423.176 460 425.345 462.162 425.345 464.83Z" fill="#164CAA"/>
<path d="M415.397 471.108C416.153 471.108 416.849 471.254 417.485 471.545C419.372 472.492 420.486 474.292 420.5 476.299V490.124C420.146 492.322 417.623 491.724 417.562 490.124V477.07C417.337 476.325 415.895 476.634 415.861 477.07V507.033C415.494 510.092 411.529 509.194 411.428 506.981V488.634C411.174 487.45 409.506 487.988 409.469 488.685C409.54 494.784 409.521 500.883 409.521 506.981C409.125 510.025 405.179 509.246 405.088 507.033L405.036 477.07C404.805 476.341 403.469 476.621 403.438 477.07V490.124C403.084 492.322 400.561 491.724 400.5 490.124V476.299C400.536 474.377 401.242 472.453 402.923 471.545C403.473 471.254 404.143 471.108 404.933 471.108L415.397 471.108ZM415.345 464.83C415.345 467.497 413.176 469.659 410.501 469.659C407.826 469.659 405.657 467.497 405.657 464.83C405.657 462.162 407.826 460 410.501 460C413.176 460 415.345 462.162 415.345 464.83Z" fill="#164CAA"/>
<path d="M409.397 471.108C410.153 471.108 410.849 471.254 411.485 471.545C413.372 472.492 414.486 474.292 414.5 476.299V490.124C414.146 492.322 411.623 491.724 411.562 490.124V477.07C411.337 476.325 409.895 476.634 409.861 477.07V507.033C409.494 510.092 405.529 509.194 405.428 506.981V488.634C405.174 487.45 403.506 487.988 403.469 488.685C403.54 494.784 403.521 500.883 403.521 506.981C403.125 510.025 399.179 509.246 399.088 507.033L399.036 477.07C398.805 476.341 397.469 476.621 397.438 477.07V490.124C397.084 492.322 394.561 491.724 394.5 490.124V476.299C394.536 474.377 395.242 472.453 396.923 471.545C397.473 471.254 398.143 471.108 398.933 471.108L409.397 471.108ZM409.345 464.83C409.345 467.497 407.176 469.659 404.501 469.659C401.826 469.659 399.657 467.497 399.657 464.83C399.657 462.162 401.826 460 404.501 460C407.176 460 409.345 462.162 409.345 464.83Z" fill="#164CAA"/>
<path d="M420.397 471.108C421.153 471.108 421.849 471.254 422.485 471.545C424.372 472.492 425.486 474.292 425.5 476.299V490.124C425.146 492.322 422.623 491.724 422.562 490.124V477.07C422.337 476.325 420.895 476.634 420.861 477.07V507.033C420.494 510.092 416.529 509.194 416.428 506.981V488.634C416.174 487.45 414.506 487.988 414.469 488.685C414.54 494.784 414.521 500.883 414.521 506.981C414.125 510.025 410.179 509.246 410.088 507.033L410.036 477.07C409.805 476.341 408.469 476.621 408.438 477.07V490.124C408.084 492.322 405.561 491.724 405.5 490.124V476.299C405.536 474.377 406.242 472.453 407.923 471.545C408.473 471.254 409.143 471.108 409.933 471.108L420.397 471.108ZM420.345 464.83C420.345 467.497 418.176 469.659 415.501 469.659C412.826 469.659 410.657 467.497 410.657 464.83C410.657 462.162 412.826 460 415.501 460C418.176 460 420.345 462.162 420.345 464.83Z" fill="#164CAA"/>
<path d="M430.397 471.108C431.153 471.108 431.849 471.254 432.485 471.545C434.372 472.492 435.486 474.292 435.5 476.299V490.124C435.146 492.322 432.623 491.724 432.562 490.124V477.07C432.337 476.325 430.895 476.634 430.861 477.07V507.033C430.494 510.092 426.529 509.194 426.428 506.981V488.634C426.174 487.45 424.506 487.988 424.469 488.685C424.54 494.784 424.521 500.883 424.521 506.981C424.125 510.025 420.179 509.246 420.088 507.033L420.036 477.07C419.805 476.341 418.469 476.621 418.438 477.07V490.124C418.084 492.322 415.561 491.724 415.5 490.124V476.299C415.536 474.377 416.242 472.453 417.923 471.545C418.473 471.254 419.143 471.108 419.933 471.108L430.397 471.108ZM430.345 464.83C430.345 467.497 428.176 469.659 425.501 469.659C422.826 469.659 420.657 467.497 420.657 464.83C420.657 462.162 422.826 460 425.501 460C428.176 460 430.345 462.162 430.345 464.83Z" fill="#164CAA"/>
<path d="M403.106 588L406.762 572.471L394.5 562.026L410.7 560.645L417 546L423.3 560.645L439.5 562.026L427.237 572.471L430.894 588L417 579.766L403.106 588Z" fill="white"/>
<path d="M246.58 533.676L249.706 529.175L255.817 533.418L268.707 514.854L274.325 518.755L261.435 537.319L267.547 541.562L264.421 546.064L246.58 533.676Z" fill="white"/>
<path d="M220.639 511.509L239.245 490.479L244.368 495.011L236.708 503.669L244.677 510.719L252.337 502.061L257.46 506.593L238.853 527.624L233.731 523.092L241.019 514.853L233.05 507.803L225.762 516.042L220.639 511.509Z" fill="white"/>
<path d="M208.551 498.651L229.075 479.488L233.743 484.487L213.219 503.651L208.551 498.651Z" fill="white"/>
<path d="M214.4 461.741L209.621 472.859L210.628 474.153L218.993 467.644L223.194 473.042L201.033 490.286L193.983 481.226C192.623 479.479 191.774 477.758 191.435 476.063C191.079 474.346 191.2 472.765 191.798 471.319C192.376 469.89 193.317 468.668 194.622 467.653C196.095 466.506 197.738 465.904 199.55 465.845C201.347 465.765 203.117 466.347 204.862 467.591L209.659 455.648L214.4 461.741ZM206.808 477.126L204.204 473.779C203.434 472.79 202.619 472.242 201.758 472.135C200.881 472.006 200.001 472.286 199.117 472.974C198.275 473.629 197.809 474.397 197.718 475.279C197.61 476.14 197.941 477.065 198.711 478.054L201.315 481.4L206.808 477.126Z" fill="white"/>
<path d="M192.231 437.006L197.605 446.004L202.724 444.903L206.396 451.05L177.078 456.725L173.017 449.925L191.916 426.805L195.628 433.02L192.231 437.006ZM188.6 441.224L181.559 449.483L192.148 447.165L188.6 441.224Z" fill="white"/>
<path d="M153.137 408.467L182.86 406.409L186.272 414.259L164.489 434.587L161.588 427.91L178.256 413.076L156.023 415.107L153.137 408.467Z" fill="white"/>
<path d="M148.432 393.575L175.134 384.886L177.251 391.39L150.549 400.079L148.432 393.575Z" fill="white"/>
<path d="M143.624 376.184L160.016 372.5C161.655 372.132 162.826 371.445 163.529 370.439C164.233 369.434 164.409 368.151 164.058 366.59C163.707 365.029 162.996 363.931 161.924 363.298C160.852 362.664 159.497 362.531 157.858 362.9L141.467 366.584L139.967 359.91L156.319 356.235C158.765 355.685 160.95 355.741 162.875 356.401C164.8 357.062 166.391 358.18 167.647 359.756C168.897 361.307 169.765 363.162 170.25 365.321C170.736 367.48 170.755 369.512 170.309 371.417C169.83 373.301 168.856 374.927 167.387 376.296C165.892 377.671 163.922 378.633 161.476 379.182L145.124 382.858L143.624 376.184Z" fill="white"/>
<path d="M135.405 316.538L163.391 314.247L163.95 321.064L147.166 322.438L164.462 327.323L164.912 332.825L148.604 340.501L165.428 339.124L165.986 345.941L138 348.232L137.341 340.179L156.073 330.739L136.061 324.551L135.405 316.538Z" fill="white"/>
<path d="M150.049 293.865C147.293 293.553 144.91 292.679 142.898 291.244C140.861 289.805 139.365 287.959 138.413 285.704C137.437 283.42 137.102 280.926 137.408 278.224C137.783 274.911 138.978 272.175 140.994 270.015C143.01 267.855 145.573 266.548 148.684 266.095L147.838 273.567C146.609 273.992 145.632 274.686 144.905 275.65C144.182 276.588 143.746 277.707 143.599 279.005C143.363 281.098 143.899 282.877 145.21 284.34C146.52 285.803 148.394 286.673 150.832 286.949C153.27 287.225 155.291 286.796 156.895 285.663C158.499 284.529 159.42 282.916 159.657 280.823C159.804 279.524 159.63 278.337 159.134 277.261C158.642 276.159 157.844 275.263 156.741 274.575L157.587 267.103C160.518 268.24 162.724 270.086 164.206 272.642C165.661 275.196 166.202 278.128 165.827 281.44C165.521 284.143 164.65 286.5 163.215 288.512C161.756 290.493 159.886 291.959 157.605 292.908C155.323 293.858 152.805 294.177 150.049 293.865Z" fill="white"/>
<path d="M171.99 248.554C171.346 251.114 170.159 253.318 168.429 255.165C166.705 256.986 164.624 258.263 162.185 258.996C159.726 259.697 157.164 259.712 154.501 259.042C151.837 258.371 149.602 257.149 147.793 255.373C145.992 253.573 144.763 251.462 144.108 249.042C143.458 246.596 143.456 244.093 144.1 241.533C144.745 238.973 145.929 236.783 147.652 234.961C149.382 233.115 151.46 231.85 153.887 231.169C156.319 230.461 158.868 230.443 161.531 231.113C164.195 231.784 166.444 233.01 168.278 234.791C170.086 236.566 171.318 238.664 171.973 241.084C172.629 243.504 172.635 245.994 171.99 248.554ZM165.939 247.031C166.486 244.858 166.198 242.944 165.075 241.286C163.959 239.603 162.211 238.461 159.832 237.863C157.427 237.257 155.348 237.435 153.593 238.396C151.82 239.324 150.66 240.875 150.113 243.047C149.559 245.245 149.828 247.182 150.918 248.859C152.015 250.51 153.779 251.642 156.21 252.254C158.615 252.859 160.704 252.697 162.478 251.769C164.232 250.808 165.386 249.229 165.939 247.031Z" fill="white"/>
<path d="M175.113 220.132L178.272 211.747L183.213 213.609L177.643 228.394L151.366 218.494L153.777 212.093L175.113 220.132Z" fill="white"/>
<path d="M184.405 198.51L188.319 190.449L193.069 192.756L186.168 206.969L160.908 194.704L163.895 188.551L184.405 198.51Z" fill="white"/>
<path d="M195.638 177.829L200.274 170.161L204.792 172.893L196.618 186.414L172.588 171.888L176.126 166.034L195.638 177.829Z" fill="white"/>
<path d="M194.817 147.93L199.376 151.318L204.839 143.966L209.077 147.115L203.613 154.467L208.558 158.142L214.737 149.826L219.136 153.095L208.876 166.9L186.338 150.152L196.598 136.346L200.996 139.615L194.817 147.93Z" fill="white"/>
<path d="M222.704 120.398C221.677 120.127 220.66 120.178 219.653 120.548C218.644 120.881 217.702 121.514 216.825 122.446C215.309 124.059 214.628 125.853 214.783 127.829C214.919 129.787 215.871 131.597 217.639 133.259C219.523 135.031 221.475 135.914 223.493 135.909C225.51 135.866 227.359 134.95 229.04 133.163C230.191 131.939 230.848 130.617 231.012 129.197C231.194 127.758 230.885 126.296 230.084 124.811L224.138 131.135L220.467 127.682L230.66 116.842L235.293 121.199C236.19 122.737 236.752 124.455 236.98 126.354C237.226 128.233 237.041 130.163 236.422 132.144C235.804 134.125 234.691 135.97 233.084 137.679C231.184 139.7 229.048 141.096 226.676 141.867C224.303 142.6 221.909 142.673 219.495 142.087C217.099 141.482 214.891 140.229 212.871 138.33C210.851 136.43 209.465 134.303 208.713 131.949C207.96 129.558 207.887 127.164 208.492 124.768C209.078 122.354 210.321 120.137 212.221 118.117C214.522 115.669 217.051 114.167 219.807 113.61C222.582 113.035 225.274 113.461 227.883 114.89L222.704 120.398Z" fill="white"/>
<path d="M237.933 101.736L241.595 106.079L248.597 100.173L252.001 104.21L244.999 110.115L248.97 114.824L256.89 108.145L260.423 112.334L247.274 123.423L229.171 101.957L242.32 90.8684L245.853 95.0575L237.933 101.736Z" fill="white"/>
<path d="M288.632 93.7378C286.357 95.0767 283.955 95.7787 281.425 95.844C278.918 95.8958 276.547 95.3107 274.312 94.0888C272.086 92.8304 270.277 91.0176 268.884 88.6503C267.491 86.2831 266.792 83.8326 266.786 81.2989C266.803 78.7516 267.443 76.3949 268.705 74.2287C269.991 72.049 271.771 70.2897 274.047 68.9508C276.322 67.6119 278.713 66.9166 281.22 66.8648C283.749 66.7995 286.109 67.3914 288.298 68.6403C290.51 69.8758 292.313 71.6771 293.706 74.0443C295.099 76.4116 295.805 78.8735 295.824 81.4303C295.83 83.964 295.202 86.314 293.939 88.4802C292.677 90.6464 290.908 92.3989 288.632 93.7378ZM285.468 88.3598C287.398 87.2238 288.559 85.6741 288.951 83.7109C289.366 81.7341 288.951 79.6885 287.707 77.5741C286.449 75.4367 284.863 74.0808 282.947 73.5065C281.04 72.8957 279.122 73.1583 277.191 74.2943C275.237 75.4438 274.047 76.9955 273.618 78.9493C273.213 80.8896 273.646 82.9399 274.917 85.1003C276.175 87.2377 277.757 88.6118 279.663 89.2226C281.579 89.7969 283.514 89.5093 285.468 88.3598Z" fill="white"/>
<path d="M312.352 50.5237L314.559 55.5396L304.088 60.1469L306.472 65.5656L314.307 62.1182L316.449 66.9877L308.614 70.4351L313.189 80.8331L306.929 83.5878L295.62 57.8856L312.352 50.5237Z" fill="white"/>
<path d="M357.776 60.6585L347.62 63.2455L347.217 68.4668L340.278 70.2342L343.192 40.5152L350.867 38.5601L367.644 63.2631L360.628 65.0503L357.776 60.6585ZM354.767 55.9764L348.857 46.8736L348.061 57.6846L354.767 55.9764Z" fill="white"/>
<path d="M387.732 60.624L380.601 50.8458L378.974 51.0528L380.312 61.568L373.527 62.4313L369.983 34.5759L381.371 33.127C383.566 32.8476 385.48 32.9939 387.112 33.5658C388.771 34.1344 390.069 35.0445 391.008 36.296C391.943 37.521 392.515 38.9536 392.724 40.5937C392.96 42.4455 392.641 44.1661 391.768 45.7557C390.921 47.3419 389.518 48.5688 387.559 49.4364L395.39 59.6496L387.732 60.624ZM378.363 46.2515L382.569 45.7164C383.813 45.5582 384.7 45.1362 385.231 44.4503C385.788 43.7611 385.996 42.861 385.855 41.7499C385.72 40.6918 385.297 39.8989 384.585 39.3713C383.899 38.8402 382.934 38.6538 381.691 38.812L377.485 39.3472L378.363 46.2515Z" fill="white"/>
<path d="M422.687 30.9162L422.767 36.3956L415.328 36.5048L415.66 59.1024L408.821 59.2027L408.489 36.6051L401.05 36.7143L400.969 31.2349L422.687 30.9162Z" fill="white"/>
<path d="M439.735 60.5958C437.691 60.404 435.89 59.9002 434.333 59.0846C432.775 58.2689 431.567 57.1645 430.706 55.7714C429.872 54.3807 429.515 52.767 429.634 50.93L436.882 51.61C436.891 52.6554 437.175 53.4855 437.733 54.1004C438.294 54.6887 439.065 55.0289 440.048 55.121C441.057 55.2157 441.874 55.0647 442.501 54.6682C443.13 54.2451 443.483 53.622 443.56 52.7989C443.625 52.1086 443.439 51.5154 443.004 51.0192C442.595 50.5255 442.059 50.1003 441.396 49.7434C440.76 49.3891 439.835 48.9676 438.622 48.4788C436.869 47.7519 435.448 47.0561 434.358 46.3915C433.269 45.7268 432.364 44.8116 431.643 43.6458C430.922 42.4801 430.644 41.021 430.808 39.2687C431.052 36.6668 432.185 34.7242 434.207 33.4407C436.232 32.1308 438.757 31.6178 441.784 31.9017C444.864 32.1906 447.277 33.1669 449.022 34.8305C450.77 36.4676 451.587 38.6066 451.474 41.2476L444.106 40.5564C444.137 39.6487 443.872 38.914 443.308 38.3523C442.747 37.764 441.989 37.425 441.033 37.3353C440.21 37.2581 439.525 37.4215 438.979 37.8256C438.434 38.203 438.123 38.8033 438.046 39.6264C437.962 40.5291 438.32 41.2725 439.123 41.8566C439.925 42.4408 441.201 43.1096 442.952 43.8631C444.7 44.6431 446.106 45.3642 447.168 46.0263C448.258 46.691 449.164 47.5929 449.888 48.7321C450.611 49.8714 450.894 51.2773 450.737 52.9499C450.588 54.543 450.041 55.9513 449.096 57.1751C448.177 58.4013 446.912 59.3272 445.299 59.9527C443.687 60.5782 441.833 60.7925 439.735 60.5958Z" fill="white"/>
<path d="M487.982 64.5975L477.865 61.8617L474.949 66.2112L468.037 64.3421L485.175 39.888L492.82 41.9554L495.298 71.714L488.309 69.8241L487.982 64.5975ZM487.661 59.0411L486.986 48.2091L480.981 57.2347L487.661 59.0411Z" fill="white"/>
<path d="M524.023 83.4418L517.708 80.814L513.8 60.4282L507.146 76.419L500.831 73.7912L511.619 47.8661L517.934 50.4939L521.811 70.9537L528.496 54.889L534.811 57.5168L524.023 83.4418Z" fill="white"/>
<path d="M554.429 68.091C556.991 69.5734 558.936 71.3767 560.264 73.5007C561.593 75.6248 562.242 77.9105 562.212 80.358C562.219 82.7958 561.528 85.2149 560.139 87.6154C558.763 89.9928 557.01 91.7976 554.88 93.0297C552.773 94.2753 550.456 94.8449 547.93 94.7387C545.426 94.6458 542.905 93.8648 540.366 92.3958L531.261 87.1272L545.323 62.8224L554.429 68.091ZM542.95 87.0513C545.189 88.3468 547.286 88.7434 549.24 88.2413C551.194 87.7391 552.819 86.3686 554.114 84.1297C555.41 81.8908 555.795 79.7876 555.27 77.82C554.744 75.8524 553.362 74.2209 551.123 72.9255L548.319 71.3028L540.146 85.4287L542.95 87.0513Z" fill="white"/>
<path d="M576.934 118.266C575.357 116.951 574.158 115.516 573.335 113.962C572.513 112.408 572.142 110.814 572.221 109.178C572.32 107.56 572.939 106.027 574.076 104.58L579.667 109.243C579.083 110.11 578.847 110.955 578.96 111.778C579.089 112.58 579.533 113.297 580.29 113.929C581.069 114.578 581.828 114.916 582.569 114.944C583.327 114.951 583.971 114.637 584.5 114.002C584.944 113.47 585.127 112.876 585.049 112.22C584.991 111.582 584.79 110.928 584.445 110.258C584.121 109.606 583.597 108.735 582.874 107.646C581.84 106.054 581.062 104.677 580.54 103.512C580.018 102.348 579.79 101.081 579.855 99.7116C579.921 98.3425 580.517 96.9821 581.644 95.6305C583.318 93.6235 585.352 92.6631 587.745 92.7494C590.155 92.8151 592.528 93.8215 594.863 95.7686C597.238 97.7497 598.675 99.9201 599.173 102.28C599.687 104.619 599.15 106.844 597.562 108.957L591.879 104.218C592.419 103.487 592.615 102.731 592.469 101.949C592.339 101.147 591.906 100.438 591.169 99.8234C590.534 99.2939 589.877 99.041 589.197 99.0647C588.535 99.0679 587.939 99.3869 587.409 100.022C586.829 100.718 586.704 101.534 587.035 102.47C587.365 103.405 588.039 104.679 589.056 106.291C590.056 107.923 590.807 109.313 591.308 110.461C591.83 111.625 592.067 112.882 592.018 114.23C591.97 115.579 591.408 116.898 590.332 118.189C589.307 119.417 588.059 120.269 586.587 120.743C585.136 121.234 583.569 121.281 581.886 120.885C580.203 120.488 578.552 119.615 576.934 118.266Z" fill="white"/>
<path d="M599.76 119.044C601.781 117.144 603.989 115.891 606.384 115.286C608.799 114.662 611.175 114.716 613.51 115.448C615.884 116.182 618.002 117.539 619.865 119.521C622.149 121.949 623.462 124.631 623.806 127.565C624.149 130.5 623.488 133.3 621.821 135.965L616.67 130.487C617.141 129.275 617.244 128.08 616.978 126.903C616.731 125.744 616.16 124.689 615.264 123.737C613.821 122.202 612.118 121.461 610.154 121.514C608.191 121.567 606.315 122.434 604.528 124.114C602.741 125.795 601.76 127.613 601.587 129.57C601.414 131.527 602.048 133.272 603.492 134.807C604.387 135.759 605.405 136.394 606.546 136.712C607.705 137.05 608.904 137.02 610.142 136.625L615.294 142.103C612.531 143.603 609.696 144.091 606.788 143.568C603.899 143.026 601.313 141.541 599.03 139.113C597.166 137.131 595.932 134.942 595.327 132.547C594.759 130.152 594.851 127.778 595.602 125.424C596.354 123.07 597.74 120.943 599.76 119.044Z" fill="white"/>
<path d="M638.901 142.68L616.674 159.84L612.494 154.426L634.721 137.266L638.901 142.68Z" fill="white"/>
<path d="M644.554 160.297L639.793 163.394L644.788 171.073L640.362 173.952L635.367 166.273L630.203 169.632L635.853 178.317L631.259 181.305L621.88 166.887L645.418 151.575L654.797 165.993L650.203 168.981L644.554 160.297Z" fill="white"/>
<path d="M646.367 210.363L643.323 204.237L653.743 186.285L638.232 193.993L635.188 187.867L660.335 175.371L663.379 181.497L652.887 199.485L668.47 191.741L671.513 197.867L646.367 210.363Z" fill="white"/>
<path d="M662.381 212.228C665.006 211.331 667.534 211.102 669.966 211.539C672.423 211.968 674.564 212.998 676.389 214.629C678.248 216.277 679.617 218.387 680.497 220.961C681.574 224.116 681.663 227.1 680.765 229.915C679.867 232.73 678.108 235.007 675.49 236.747L673.059 229.63C673.989 228.721 674.576 227.675 674.82 226.493C675.073 225.336 674.988 224.139 674.566 222.903C673.885 220.909 672.639 219.531 670.829 218.768C669.019 218.006 666.953 218.021 664.631 218.814C662.309 219.607 660.666 220.859 659.7 222.57C658.734 224.28 658.592 226.132 659.273 228.126C659.695 229.362 660.361 230.361 661.269 231.122C662.185 231.908 663.289 232.376 664.58 232.527L667.011 239.643C663.876 239.868 661.092 239.143 658.659 237.466C656.252 235.78 654.509 233.36 653.432 230.206C652.553 227.632 652.332 225.129 652.769 222.697C653.24 220.281 654.304 218.157 655.96 216.323C657.616 214.489 659.757 213.124 662.381 212.228Z" fill="white"/>
<path d="M682.991 251.501L677.44 252.705L679.382 261.657L674.222 262.776L672.28 253.825L666.26 255.13L668.456 265.255L663.101 266.417L659.455 249.607L686.897 243.655L690.543 260.464L685.187 261.626L682.991 251.501Z" fill="white"/>
<path d="M695.013 303.334L689.544 303.68L688.821 292.263L682.913 292.637L683.454 301.18L678.144 301.516L677.604 292.973L666.266 293.69L665.834 286.864L693.858 285.091L695.013 303.334Z" fill="white"/>
<path d="M666.144 324.914C666.287 322.278 667.031 319.888 668.375 317.745C669.719 315.628 671.517 313.976 673.772 312.79C676.051 311.631 678.562 311.127 681.305 311.275C684.047 311.424 686.476 312.197 688.59 313.593C690.703 315.016 692.312 316.853 693.419 319.103C694.524 321.379 695.005 323.836 694.862 326.472C694.719 329.108 693.976 331.485 692.632 333.602C691.288 335.745 689.49 337.384 687.238 338.517C684.985 339.676 682.488 340.182 679.745 340.033C677.002 339.884 674.561 339.111 672.42 337.713C670.306 336.316 668.696 334.493 667.589 332.243C666.483 329.993 666.001 327.55 666.144 324.914ZM672.375 325.252C672.253 327.489 672.902 329.313 674.321 330.726C675.739 332.165 677.672 332.95 680.122 333.083C682.598 333.218 684.606 332.645 686.144 331.367C687.707 330.116 688.549 328.373 688.671 326.136C688.794 323.873 688.159 322.022 686.769 320.585C685.376 319.174 683.429 318.401 680.926 318.265C678.449 318.131 676.429 318.689 674.866 319.939C673.328 321.218 672.497 322.989 672.375 325.252Z" fill="white"/>
<path d="M661.996 359.831L673.473 355.992L673.768 354.378L663.34 352.473L664.57 345.744L692.192 350.792L690.129 362.085C689.731 364.262 689.013 366.042 687.974 367.425C686.93 368.833 685.67 369.796 684.193 370.312C682.743 370.833 681.204 370.945 679.578 370.648C677.742 370.312 676.198 369.488 674.947 368.175C673.691 366.888 672.946 365.18 672.712 363.05L660.608 367.426L661.996 359.831ZM678.529 355.248L677.767 359.419C677.541 360.652 677.675 361.626 678.168 362.339C678.657 363.079 679.452 363.55 680.553 363.751C681.603 363.943 682.487 363.779 683.205 363.259C683.919 362.766 684.388 361.903 684.613 360.67L685.375 356.499L678.529 355.248Z" fill="white"/>
<path d="M667.355 433.398L643.973 416.212L647.035 408.519L665.861 411.191L650.407 400.046L653.469 392.353L682.192 396.122L679.485 402.923L659 399.118L676.142 411.322L673.361 418.309L652.595 415.21L670.077 426.56L667.355 433.398Z" fill="white"/>
<path d="M631.12 439.202C632.465 436.93 634.229 435.155 636.413 433.876C638.582 432.619 640.941 431.986 643.488 431.976C646.045 432.003 648.505 432.716 650.868 434.116C653.231 435.515 655.028 437.323 656.257 439.539C657.472 441.777 658.051 444.15 657.992 446.656C657.919 449.186 657.211 451.586 655.865 453.858C654.52 456.129 652.762 457.893 650.593 459.149C648.409 460.429 646.058 461.05 643.537 461.015C641.004 461.002 638.555 460.295 636.192 458.896C633.829 457.496 632.021 455.682 630.769 453.452C629.54 451.237 628.954 448.876 629.013 446.369C629.072 443.862 629.774 441.473 631.12 439.202ZM636.489 442.382C635.347 444.309 635.079 446.227 635.685 448.135C636.276 450.066 637.628 451.657 639.739 452.907C641.872 454.171 643.917 454.591 645.872 454.169C647.836 453.782 649.389 452.626 650.531 450.698C651.686 448.748 651.979 446.814 651.41 444.896C650.827 443.002 649.458 441.416 647.301 440.138C645.167 438.875 643.118 438.436 641.154 438.822C639.199 439.245 637.644 440.431 636.489 442.382Z" fill="white"/>
<path d="M622.183 499.406L600.341 481.758L604.64 476.438L617.739 487.021L608.587 471.553L612.056 467.259L629.158 472.952L616.028 462.343L620.327 457.023L642.168 474.671L637.09 480.956L617.017 474.867L627.236 493.152L622.183 499.406Z" fill="white"/>
<path d="M585.86 502.195L593.528 495.051L591.377 490.277L596.616 485.396L608.321 512.868L602.526 518.266L575.952 504.645L581.25 499.71L585.86 502.195ZM590.747 504.858L600.3 510.008L595.81 500.141L590.747 504.858Z" fill="white"/>
<path d="M550.809 522.838L556.377 518.865L575.75 526.319L565.689 512.22L571.257 508.247L587.567 531.105L581.999 535.078L562.58 527.558L572.687 541.722L567.119 545.695L550.809 522.838Z" fill="white"/>
</svg>
