<svg width="926" height="636" viewBox="0 0 926 636" fill="none" xmlns="http://www.w3.org/2000/svg">
<g clip-path="url(#clip0_97_158)">
<path d="M425.116 158.565L456.05 137.935L492.682 144.304L461.748 164.933L425.116 158.565Z" fill="#280F5A" stroke="#280F5A" stroke-width="2" stroke-linejoin="round"/>
<path d="M492.719 144.481L495.847 159.302M441.973 162.435L446.193 182.429C446.193 182.429 455.529 188.404 466.225 186.146C476.923 183.888 483.047 174.651 483.047 174.651L478.827 154.656" stroke="#280F5A" stroke-width="2" stroke-linecap="round" stroke-linejoin="round"/>
</g>
<path d="M409.991 428.625C412.436 418.973 410.945 414.175 402.028 408.51C398.976 419.108 400.812 423.702 409.991 428.625Z" fill="#280F5A"/>
<path d="M407.734 430.861C398.802 425.629 394.083 425.386 386.356 430.048C395.146 437.23 399.936 437.639 407.734 430.861Z" fill="#280F5A"/>
<path d="M393.806 419.401C398.897 409.857 398.055 404.796 389.897 397.288C386.187 409.302 387.675 414.308 393.806 419.401Z" fill="#280F5A"/>
<path d="M393.157 420.634C386.613 414.294 381.937 413.113 371.039 416.969C378.033 424.643 383.171 425.58 393.157 420.634Z" fill="#280F5A"/>
<path d="M381.49 405.976C374.534 400.652 372.631 395.819 375.824 384.561C384.484 391.02 385.493 396.033 381.49 405.976Z" fill="#280F5A"/>
<path d="M379.801 407.807C373.406 401.385 368.921 399.907 358.58 405.095C365.358 412.249 370.286 413.109 379.801 407.807Z" fill="#280F5A"/>
<path d="M367.464 395.922C361.293 389.779 360.217 384.528 364.822 373.066C372.064 381.957 372.595 387.326 367.464 395.922Z" fill="#280F5A"/>
<path d="M365.741 396.871C360.609 390.535 356.22 388.429 343.962 391.09C351.123 399.549 356.186 401.065 365.741 396.871Z" fill="#280F5A"/>
<path d="M354.87 382.059C362.696 374.778 361.967 369.802 355.525 360.18C349.54 370.935 349.381 375.782 354.87 382.059Z" fill="#280F5A"/>
<path d="M352.948 384.562C342.541 385.54 337.719 383.202 332.316 374.322C345.507 373.897 350.082 377.384 352.948 384.562Z" fill="#280F5A"/>
<path d="M343.972 368.573C341.036 361.128 342.166 355.884 348.392 346.328C352.509 357.521 351.313 362.984 343.972 368.573Z" fill="#280F5A"/>
<path d="M342.249 369.523C338.985 359.708 335.008 356.287 324.607 356.959C328.204 367.23 332.635 370.031 342.249 369.523Z" fill="#280F5A"/>
<path d="M337.175 352.059C334.655 343.534 335.887 338.701 344.298 331.475C346.852 341.921 345.282 346.945 337.175 352.059Z" fill="#280F5A"/>
<path d="M333.695 353.077C333.325 343.571 330.111 339.697 318.57 337.325C321.489 348.027 325.244 352.244 333.695 353.077Z" fill="#280F5A"/>
<path d="M330.224 335.158C327.482 325.964 329.28 321.074 338.268 314.276C340.083 326.262 337.999 331.547 330.224 335.158Z" fill="#280F5A"/>
<path d="M328.066 335.576C326.457 326.444 324.027 322.668 312.111 320.243C315.743 332.537 320.115 335.667 328.066 335.576Z" fill="#280F5A"/>
<path d="M325.573 318.084C324.361 309.314 326.512 304.796 336.709 299.299C336.824 309.632 334.409 314.073 325.573 318.084Z" fill="#280F5A"/>
<path d="M323.847 318.419C322.081 307.676 318.663 303.405 309.113 300.153C311.098 311.409 314.763 315.983 323.847 318.419Z" fill="#280F5A"/>
<path d="M323.803 298.826C323.763 287.673 326.526 283.781 335.198 280.088C335.79 291.217 332.49 295.502 323.803 298.826Z" fill="#280F5A"/>
<path d="M322.115 300.185C313.176 297.344 309.514 292.66 308.114 281.551C318.072 283.841 321.1 288.952 322.115 300.185Z" fill="#280F5A"/>
<path d="M321.449 280.895C321.919 272.687 325.622 269.176 336.947 264.413C335.04 275.703 330.892 279.429 321.449 280.895Z" fill="#280F5A"/>
<path d="M320.059 280.935C312.717 278.449 310.013 273.834 309.584 261.28C318.554 266.427 320.912 271.045 320.059 280.935Z" fill="#280F5A"/>
<path d="M320.67 261.631C313.492 255.995 312.016 250.917 315.258 239.787C323.431 248.2 324.621 253.412 320.67 261.631Z" fill="#280F5A"/>
<path d="M322.631 262.15C324.754 254.792 328.929 251.786 341.144 249.736C337.591 259.803 332.921 262.326 322.631 262.15Z" fill="#280F5A"/>
<path d="M325.352 248.491C323.232 238.995 324.541 234.264 333.413 229.429C336.62 238.773 334.875 242.841 325.352 248.491Z" fill="#280F5A"/>
<path d="M516.588 426.905C514.143 417.253 515.634 412.455 524.551 406.789C527.603 417.388 525.767 421.982 516.588 426.905Z" fill="#280F5A"/>
<path d="M518.845 429.141C527.777 423.909 532.496 423.666 540.223 428.328C531.434 435.509 526.643 435.919 518.845 429.141Z" fill="#280F5A"/>
<path d="M532.773 417.68C527.682 408.137 528.524 403.076 536.683 395.567C540.392 407.582 538.904 412.588 532.773 417.68Z" fill="#280F5A"/>
<path d="M533.422 418.914C539.966 412.574 544.642 411.393 555.54 415.249C548.547 422.922 543.408 423.86 533.422 418.914Z" fill="#280F5A"/>
<path d="M545.089 404.256C552.045 398.932 553.948 394.099 550.755 382.841C542.096 389.3 541.086 394.313 545.089 404.256Z" fill="#280F5A"/>
<path d="M546.778 406.087C553.173 399.664 557.658 398.186 567.999 403.374C561.221 410.529 556.293 411.389 546.778 406.087Z" fill="#280F5A"/>
<path d="M559.115 394.201C565.286 388.059 566.362 382.807 561.758 371.346C554.515 380.236 553.984 385.605 559.115 394.201Z" fill="#280F5A"/>
<path d="M560.838 395.151C565.97 388.815 570.359 386.709 582.617 389.37C575.456 397.829 570.393 399.345 560.838 395.151Z" fill="#280F5A"/>
<path d="M571.709 380.339C563.883 373.058 564.612 368.082 571.054 358.46C577.039 369.214 577.198 374.061 571.709 380.339Z" fill="#280F5A"/>
<path d="M573.631 382.842C584.038 383.82 588.86 381.482 594.263 372.601C581.072 372.176 576.497 375.664 573.631 382.842Z" fill="#280F5A"/>
<path d="M582.607 366.853C585.543 359.408 584.413 354.164 578.187 344.607C574.07 355.801 575.266 361.264 582.607 366.853Z" fill="#280F5A"/>
<path d="M584.33 367.803C587.594 357.987 591.571 354.567 601.972 355.239C598.375 365.51 593.944 368.31 584.33 367.803Z" fill="#280F5A"/>
<path d="M589.404 350.339C591.924 341.814 590.692 336.981 582.281 329.755C579.727 340.201 581.297 345.225 589.404 350.339Z" fill="#280F5A"/>
<path d="M592.884 351.356C593.254 341.851 596.468 337.977 608.01 335.605C605.09 346.307 601.335 350.523 592.884 351.356Z" fill="#280F5A"/>
<path d="M596.355 333.438C599.097 324.244 597.299 319.354 588.311 312.556C586.496 324.542 588.58 329.827 596.355 333.438Z" fill="#280F5A"/>
<path d="M598.513 333.856C600.122 324.724 602.552 320.948 614.469 318.523C610.836 330.817 606.464 333.947 598.513 333.856Z" fill="#280F5A"/>
<path d="M601.006 316.364C602.218 307.594 600.067 303.076 589.87 297.579C589.755 307.912 592.17 312.353 601.006 316.364Z" fill="#280F5A"/>
<path d="M602.732 316.698C604.498 305.956 607.916 301.685 617.466 298.432C615.481 309.689 611.816 314.263 602.732 316.698Z" fill="#280F5A"/>
<path d="M602.776 297.106C602.816 285.953 600.053 282.061 591.381 278.368C590.789 289.497 594.089 293.782 602.776 297.106Z" fill="#280F5A"/>
<path d="M604.465 298.465C613.403 295.624 617.065 290.94 618.466 279.831C608.507 282.121 605.479 287.232 604.465 298.465Z" fill="#280F5A"/>
<path d="M605.13 279.175C604.66 270.966 600.957 267.456 589.632 262.693C591.539 273.982 595.687 277.709 605.13 279.175Z" fill="#280F5A"/>
<path d="M606.52 279.215C613.862 276.729 616.566 272.114 616.995 259.56C608.025 264.707 605.667 269.325 606.52 279.215Z" fill="#280F5A"/>
<path d="M605.909 259.91C613.087 254.275 614.563 249.196 611.321 238.067C603.148 246.48 601.958 251.692 605.909 259.91Z" fill="#280F5A"/>
<path d="M603.948 260.43C601.825 253.072 597.65 250.066 585.435 248.016C588.988 258.083 593.658 260.606 603.948 260.43Z" fill="#280F5A"/>
<path d="M601.227 246.771C603.347 237.275 602.038 232.544 593.166 227.709C589.959 237.053 591.704 241.12 601.227 246.771Z" fill="#280F5A"/>
<path d="M462.301 326.43H367.306C358.207 297.561 356.171 279.289 357.271 243.477C381.512 237.05 392.177 228.956 406.776 207.352L462.301 202V326.43Z" fill="#FAE35B" stroke="#280F5A" stroke-width="3"/>
<path d="M462.699 326.43H557.694C566.793 297.561 568.829 279.289 567.729 243.477C543.488 237.05 532.823 228.956 518.224 207.352L462.699 202V326.43Z" fill="#280F5A" stroke="#280F5A" stroke-width="3"/>
<path d="M462.698 326.43H557.693C540.467 382.301 520.071 406.794 462.698 437.48V326.43Z" fill="#FAE35B" stroke="#280F5A" stroke-width="3"/>
<path d="M462.699 326.43H367.704C384.93 382.301 405.326 406.794 462.699 437.48V326.43Z" fill="#280F5A" stroke="#280F5A" stroke-width="3"/>
<path d="M690 295C690 420.369 588.369 522 463 522C337.631 522 236 420.369 236 295C236 169.631 337.631 68 463 68C588.369 68 690 169.631 690 295ZM298.855 295C298.855 385.655 372.345 459.145 463 459.145C553.655 459.145 627.145 385.655 627.145 295C627.145 204.345 553.655 130.855 463 130.855C372.345 130.855 298.855 204.345 298.855 295Z" fill="#280F5A"/>
<path d="M308.082 423.961L310.684 421.616L314.544 425.9L328.016 413.759L330.921 416.983L317.45 429.124L321.31 433.407L318.707 435.752L308.082 423.961ZM294.18 405.021L311.756 392.401L314.287 395.926L306.809 401.296L312.215 408.825L319.694 403.455L322.225 406.98L304.649 419.601L302.117 416.075L309.344 410.886L303.938 403.357L296.711 408.546L294.18 405.021ZM288.616 396.19L307.204 385.114L309.426 388.842L290.838 399.919L288.616 396.19ZM300.221 371.342L294.771 379.354L295.676 381.189L303.239 377.459L305.158 381.351L285.753 390.923L282.16 383.639C281.419 382.138 281.057 380.726 281.074 379.405C281.071 378.092 281.396 376.952 282.049 375.985C282.673 375.009 283.541 374.247 284.654 373.698C285.932 373.067 287.274 372.867 288.677 373.096C290.062 373.335 291.311 374.09 292.422 375.362L298 366.838L300.221 371.342ZM292.757 382.629L291.153 379.376C290.632 378.319 289.993 377.655 289.236 377.383C288.462 377.12 287.62 377.212 286.712 377.66C285.822 378.099 285.264 378.697 285.038 379.454C284.794 380.22 284.932 381.131 285.453 382.187L287.058 385.44L292.757 382.629ZM288.291 352.324L291.17 360.446L295.532 360.413L297.055 364.708L274.031 364.613L272.343 359.851L290.168 345.278L291.701 349.602L288.291 352.324ZM285.412 354.594L277.926 360.569L287.504 360.496L285.412 354.594ZM264.146 328.146L286.984 331.245L288.117 336.392L268.69 348.794L267.691 344.252L283.214 334.741L265.139 332.657L264.146 328.146ZM262.883 319.457L284.336 316.632L284.902 320.935L263.449 323.76L262.883 319.457ZM262.136 309.124L275.513 308.486C276.979 308.416 278.085 307.981 278.833 307.179C279.561 306.379 279.892 305.287 279.826 303.904C279.759 302.501 279.325 301.435 278.525 300.708C277.704 299.981 276.561 299.653 275.095 299.723L261.718 300.361L261.51 295.995L274.856 295.358C276.693 295.271 278.271 295.599 279.589 296.343C280.886 297.067 281.886 298.085 282.59 299.397C283.293 300.687 283.683 302.148 283.761 303.779C283.838 305.389 283.588 306.87 283.011 308.222C282.433 309.553 281.533 310.63 280.31 311.454C279.066 312.279 277.526 312.735 275.689 312.823L262.343 313.459L262.136 309.124ZM263.732 265.395L285.286 267.295L284.905 271.619L270.886 270.382L284.396 277.393L284.107 280.666L269.576 285.236L283.595 286.472L283.214 290.795L261.66 288.894L262.093 283.984L278.724 278.542L263.302 270.274L263.732 265.395ZM276.677 253.948C274.627 253.374 272.925 252.403 271.569 251.036C270.2 249.644 269.29 248.026 268.841 246.183C268.377 244.314 268.424 242.385 268.982 240.395C269.634 238.067 270.803 236.194 272.487 234.778C274.172 233.361 276.167 232.6 278.471 232.495L277.125 237.301C275.996 237.5 275.06 237.967 274.317 238.703C273.58 239.419 273.052 240.345 272.734 241.479C272.394 242.693 272.379 243.858 272.688 244.975C272.983 246.067 273.573 247.026 274.457 247.853C275.347 248.661 276.488 249.26 277.881 249.65C279.255 250.035 280.541 250.116 281.741 249.894C282.926 249.647 283.938 249.137 284.778 248.363C285.602 247.564 286.185 246.558 286.525 245.344C286.843 244.209 286.873 243.145 286.615 242.149C286.343 241.129 285.777 240.24 284.916 239.484L286.262 234.678C288.196 235.971 289.515 237.661 290.218 239.747C290.907 241.807 290.923 244.011 290.265 246.359C289.707 248.349 288.755 250.025 287.407 251.386C286.046 252.721 284.428 253.631 282.554 254.114C280.686 254.578 278.727 254.523 276.677 253.948ZM298.273 223.926C297.47 225.785 296.297 227.305 294.753 228.484C293.209 229.664 291.472 230.378 289.542 230.625C287.593 230.865 285.641 230.563 283.686 229.72C281.751 228.885 280.211 227.68 279.067 226.106C277.904 224.524 277.221 222.767 277.02 220.834C276.818 218.901 277.119 217.005 277.921 215.146C278.731 213.267 279.905 211.747 281.441 210.587C282.985 209.408 284.727 208.708 286.668 208.487C288.598 208.239 290.531 208.533 292.467 209.368C294.421 210.211 295.98 211.424 297.143 213.006C298.295 214.561 298.972 216.305 299.174 218.237C299.375 220.17 299.075 222.066 298.273 223.926ZM294.715 222.391C295.23 221.195 295.419 220.028 295.281 218.887C295.123 217.739 294.652 216.692 293.868 215.746C293.083 214.799 292.027 214.04 290.698 213.467C289.37 212.894 288.102 212.65 286.894 212.737C285.667 212.816 284.592 213.196 283.668 213.877C282.743 214.559 282.023 215.497 281.507 216.693C280.992 217.888 280.799 219.066 280.929 220.225C281.067 221.365 281.529 222.408 282.314 223.354C283.079 224.292 284.126 225.048 285.455 225.621C286.783 226.194 288.061 226.441 289.287 226.363C290.514 226.284 291.599 225.908 292.542 225.235C293.475 224.534 294.199 223.586 294.715 222.391ZM303.084 205.362L306.6 199.16L309.594 200.857L303.936 210.835L285.113 200.163L287.254 196.387L303.084 205.362ZM310.673 193.026L314.665 187.119L317.516 189.045L311.095 198.549L293.166 186.434L295.596 182.838L310.673 193.026ZM307.823 172.101L312.044 175.509L316.621 169.842L319.298 172.004L314.721 177.671L319.182 181.275L324.344 174.884L327.093 177.104L319.205 186.871L302.347 173.257L310.235 163.489L312.985 165.71L307.823 172.101ZM329.8 152.849C328.808 152.552 327.836 152.54 326.885 152.813C325.934 153.087 325.047 153.63 324.225 154.445C323.314 155.347 322.71 156.352 322.413 157.461C322.115 158.571 322.147 159.703 322.506 160.859C322.866 162.016 323.541 163.093 324.53 164.091C325.548 165.119 326.633 165.818 327.786 166.189C328.953 166.545 330.1 166.573 331.227 166.271C332.354 165.97 333.394 165.346 334.349 164.401C335.523 163.237 336.18 161.976 336.318 160.618C336.441 159.245 336.067 157.884 335.197 156.535L329.911 161.771L327.577 159.415L335.902 151.168L338.563 153.855C339.42 155.13 339.961 156.558 340.187 158.137C340.414 159.717 340.267 161.316 339.748 162.936C339.229 164.526 338.309 165.976 336.987 167.285C335.505 168.754 333.834 169.754 331.975 170.286C330.117 170.789 328.254 170.787 326.386 170.282C324.532 169.761 322.856 168.745 321.358 167.233C319.86 165.721 318.86 164.035 318.357 162.177C317.855 160.289 317.871 158.426 318.406 156.587C318.94 154.719 319.942 153.058 321.41 151.604C323.143 149.888 325.07 148.823 327.191 148.409C329.297 147.98 331.349 148.29 333.346 149.337L329.8 152.849ZM338.961 140.724L342.323 144.981L348.041 140.466L350.173 143.167L344.456 147.681L348.01 152.182L354.457 147.091L356.648 149.864L346.795 157.645L333.365 140.64L343.218 132.859L345.408 135.632L338.961 140.724ZM374.856 138.754C373.093 139.751 371.24 140.254 369.297 140.261C367.354 140.268 365.539 139.788 363.851 138.82C362.153 137.834 360.78 136.414 359.731 134.562C358.693 132.727 358.193 130.837 358.232 128.892C358.261 126.928 358.778 125.115 359.785 123.453C360.791 121.791 362.176 120.461 363.939 119.464C365.719 118.456 367.572 117.954 369.497 117.957C371.44 117.949 373.252 118.444 374.932 119.44C376.62 120.408 377.983 121.81 379.021 123.644C380.07 125.497 380.58 127.405 380.551 129.368C380.53 131.304 380.016 133.102 379.01 134.764C378.003 136.426 376.619 137.756 374.856 138.754ZM372.947 135.381C374.08 134.74 374.936 133.923 375.514 132.931C376.083 131.921 376.34 130.802 376.286 129.574C376.232 128.346 375.849 127.102 375.136 125.843C374.424 124.584 373.56 123.624 372.545 122.964C371.52 122.285 370.433 121.939 369.285 121.924C368.136 121.909 366.996 122.222 365.863 122.863C364.729 123.504 363.865 124.326 363.268 125.329C362.69 126.321 362.428 127.431 362.482 128.659C362.526 129.869 362.904 131.104 363.616 132.363C364.329 133.622 365.198 134.591 366.223 135.269C367.248 135.947 368.34 136.303 369.498 136.336C370.664 136.341 371.814 136.023 372.947 135.381ZM391.143 106.616L392.509 109.842L384.203 113.361L386.368 118.47L392.733 115.773L394.076 118.942L387.71 121.639L391.278 130.059L387.282 131.752L378.84 111.829L391.143 106.616ZM421.318 115.931L412.971 118.076L412.616 122.424L408.203 123.558L410.346 100.634L415.24 99.3768L428.169 118.428L423.725 119.57L421.318 115.931ZM419.313 112.861L414.028 104.873L413.248 114.42L419.313 112.861ZM442.078 116.455L436.216 108.74L434.188 109.015L435.32 117.371L431.019 117.953L428.115 96.5108L436.164 95.4209C437.823 95.1962 439.276 95.3018 440.524 95.7377C441.769 96.153 442.746 96.8236 443.455 97.7495C444.182 98.6521 444.629 99.7178 444.795 100.947C444.987 102.36 444.751 103.695 444.087 104.953C443.42 106.19 442.307 107.133 440.747 107.783L447.055 115.782L442.078 116.455ZM433.751 105.789L437.346 105.303C438.513 105.145 439.346 104.75 439.844 104.12C440.34 103.469 440.52 102.641 440.384 101.638C440.251 100.655 439.862 99.9358 439.216 99.481C438.568 99.0057 437.66 98.8471 436.493 99.0052L432.899 99.4919L433.751 105.789ZM464.78 93.4456L464.885 96.947L459.121 97.1189L459.662 115.246L455.324 115.375L454.783 97.2482L449.02 97.4201L448.915 93.9186L464.78 93.4456ZM476.016 115.936C474.511 115.83 473.168 115.476 471.988 114.875C470.829 114.276 469.933 113.466 469.3 112.448C468.668 111.43 468.388 110.26 468.46 108.939L473.099 109.267C473.098 110.157 473.358 110.88 473.878 111.435C474.419 111.991 475.184 112.304 476.174 112.374C477.184 112.445 477.994 112.264 478.605 111.83C479.217 111.376 479.551 110.758 479.606 109.974C479.651 109.335 479.492 108.796 479.13 108.356C478.767 107.916 478.295 107.561 477.713 107.292C477.153 107.004 476.368 106.68 475.358 106.318C473.985 105.807 472.869 105.324 472.01 104.87C471.174 104.397 470.464 103.735 469.882 102.886C469.321 102.018 469.089 100.904 469.185 99.543C469.275 98.2649 469.674 97.1742 470.38 96.271C471.085 95.3677 472.033 94.7095 473.223 94.2961C474.413 93.8622 475.751 93.6976 477.235 93.8023C479.462 93.9594 481.227 94.6329 482.531 95.823C483.857 96.9939 484.524 98.5533 484.532 100.501L479.77 100.165C479.781 99.4204 479.504 98.7897 478.94 98.2733C478.397 97.7378 477.642 97.4359 476.673 97.3676C475.828 97.3079 475.132 97.4764 474.586 97.873C474.061 98.271 473.769 98.8823 473.711 99.7069C473.67 100.284 473.822 100.782 474.165 101.2C474.531 101.598 474.983 101.941 475.522 102.228C476.083 102.495 476.868 102.82 477.877 103.202C479.25 103.713 480.365 104.206 481.223 104.681C482.08 105.156 482.799 105.828 483.38 106.698C483.961 107.567 484.204 108.672 484.11 110.012C484.028 111.167 483.654 112.218 482.986 113.165C482.318 114.112 481.386 114.844 480.189 115.361C478.994 115.856 477.603 116.048 476.016 115.936ZM508.528 116.867L500.129 114.937L497.815 118.636L493.374 117.615L505.81 98.2389L510.735 99.3705L513.466 122.232L508.994 121.204L508.528 116.867ZM508.157 113.219L507.133 103.696L502.054 111.817L508.157 113.219ZM533.583 129.513L529.508 128.018L525.399 110.693L520.283 124.633L516.209 123.137L523.674 102.795L527.748 104.29L531.847 121.645L536.974 107.676L541.048 109.171L533.583 129.513ZM554.146 115.488C556.165 116.533 557.732 117.844 558.847 119.421C559.981 121.008 560.581 122.749 560.647 124.645C560.742 126.532 560.29 128.439 559.293 130.367C558.296 132.294 557 133.764 555.406 134.778C553.839 135.782 552.08 136.28 550.13 136.272C548.198 136.273 546.223 135.751 544.204 134.707L537.485 131.231L547.428 112.013L554.146 115.488ZM545.761 131.359C547.78 132.403 549.625 132.66 551.296 132.128C552.968 131.597 554.321 130.331 555.356 128.33C556.391 126.329 556.647 124.484 556.125 122.794C555.612 121.087 554.347 119.71 552.327 118.666L549.602 117.256L543.035 129.949L545.761 131.359ZM569.188 150.232C567.971 149.34 567.024 148.325 566.346 147.188C565.684 146.062 565.357 144.9 565.365 143.701C565.372 142.503 565.759 141.364 566.524 140.285L570.274 143.033C569.799 143.787 569.634 144.537 569.778 145.283C569.94 146.042 570.42 146.715 571.22 147.301C572.037 147.9 572.819 148.179 573.567 148.137C574.327 148.079 574.939 147.734 575.403 147.1C575.782 146.583 575.935 146.042 575.863 145.477C575.791 144.911 575.58 144.36 575.231 143.822C574.911 143.28 574.42 142.587 573.757 141.743C572.868 140.578 572.181 139.575 571.696 138.733C571.241 137.887 570.993 136.949 570.952 135.92C570.941 134.887 571.339 133.82 572.145 132.72C572.902 131.687 573.82 130.976 574.899 130.588C575.978 130.2 577.131 130.148 578.357 130.432C579.596 130.7 580.816 131.273 582.016 132.153C583.816 133.472 584.951 134.983 585.42 136.685C585.918 138.382 585.652 140.057 584.62 141.71L580.769 138.888C581.176 138.263 581.278 137.582 581.075 136.844C580.902 136.102 580.423 135.444 579.64 134.87C578.957 134.369 578.278 134.141 577.605 134.185C576.948 134.242 576.376 134.604 575.887 135.271C575.545 135.738 575.408 136.239 575.476 136.776C575.573 137.308 575.773 137.839 576.076 138.369C576.408 138.894 576.9 139.587 577.55 140.448C578.439 141.613 579.12 142.624 579.592 143.483C580.065 144.341 580.315 145.293 580.343 146.339C580.371 147.384 579.988 148.449 579.194 149.532C578.51 150.466 577.633 151.156 576.563 151.601C575.493 152.047 574.314 152.17 573.027 151.969C571.751 151.751 570.471 151.172 569.188 150.232ZM584.99 148.345C586.442 146.788 588.087 145.723 589.924 145.147C591.79 144.571 593.645 144.507 595.488 144.955C597.361 145.402 599.052 146.33 600.563 147.74C602.331 149.389 603.457 151.288 603.941 153.435C604.425 155.583 604.184 157.704 603.218 159.799L599.569 156.394C599.911 155.3 599.926 154.254 599.614 153.256C599.317 152.272 598.737 151.378 597.876 150.575C596.954 149.715 595.926 149.165 594.792 148.927C593.687 148.687 592.564 148.77 591.423 149.175C590.297 149.594 589.24 150.333 588.254 151.39C587.281 152.433 586.617 153.538 586.263 154.705C585.938 155.872 585.926 157.005 586.227 158.106C586.557 159.206 587.184 160.186 588.105 161.046C588.967 161.85 589.898 162.366 590.901 162.594C591.932 162.822 592.982 162.727 594.049 162.31L597.698 165.715C595.661 166.838 593.554 167.233 591.379 166.899C589.232 166.564 587.267 165.564 585.484 163.9C583.973 162.491 582.923 160.875 582.334 159.053C581.773 157.23 581.709 155.375 582.141 153.488C582.588 151.616 583.537 149.901 584.99 148.345ZM614.618 162.145L598.502 176.584L595.606 173.352L611.722 158.912L614.618 162.145ZM618.225 172.156L613.945 175.489L618.42 181.237L615.704 183.351L611.229 177.602L606.704 181.125L611.75 187.608L608.962 189.778L601.249 179.871L618.348 166.561L626.06 176.468L623.272 178.639L618.225 172.156ZM620.892 208.779L618.616 205.083L626.108 188.93L613.464 196.715L611.188 193.02L629.64 181.658L631.915 185.354L624.397 201.523L637.068 193.722L639.343 197.417L620.892 208.779ZM632.351 207.135C634.293 206.262 636.222 205.916 638.138 206.096C640.082 206.287 641.817 206.946 643.344 208.072C644.897 209.209 646.098 210.72 646.945 212.605C647.937 214.81 648.24 216.996 647.855 219.164C647.47 221.331 646.427 223.194 644.726 224.752L642.679 220.2C643.418 219.324 643.837 218.365 643.935 217.324C644.042 216.301 643.853 215.253 643.37 214.179C642.853 213.029 642.118 212.125 641.165 211.466C640.238 210.817 639.171 210.459 637.962 210.391C636.761 210.341 635.501 210.613 634.182 211.207C632.881 211.791 631.842 212.554 631.063 213.493C630.312 214.443 629.862 215.483 629.714 216.615C629.593 217.757 629.791 218.903 630.308 220.053C630.791 221.127 631.451 221.963 632.287 222.562C633.15 223.171 634.154 223.49 635.3 223.518L637.347 228.07C635.033 228.317 632.938 227.866 631.061 226.716C629.212 225.576 627.787 223.894 626.787 221.67C625.939 219.785 625.596 217.889 625.758 215.981C625.947 214.083 626.605 212.348 627.734 210.775C628.871 209.222 630.41 208.008 632.351 207.135ZM651.009 232.929L645.842 234.581L648.06 241.52L644.783 242.568L642.564 235.629L637.102 237.376L639.603 245.2L636.237 246.277L632.414 234.318L653.053 227.719L656.877 239.677L653.511 240.754L651.009 232.929ZM662.589 266.62L659.14 267.235L657.557 258.354L652.094 259.327L653.307 266.133L649.92 266.737L648.707 259.931L639.704 261.536L638.942 257.263L660.244 253.466L662.589 266.62ZM642.006 283.507C641.878 281.486 642.234 279.6 643.076 277.848C643.917 276.096 645.141 274.673 646.749 273.577C648.377 272.479 650.254 271.863 652.378 271.728C654.482 271.594 656.401 271.969 658.134 272.853C659.888 273.736 661.293 274.993 662.35 276.624C663.406 278.255 663.998 280.081 664.127 282.102C664.256 284.144 663.9 286.03 663.057 287.761C662.216 289.513 660.98 290.927 659.351 292.004C657.743 293.1 655.887 293.715 653.784 293.848C651.659 293.983 649.72 293.609 647.966 292.727C646.233 291.864 644.839 290.617 643.783 288.986C642.727 287.355 642.135 285.528 642.006 283.507ZM645.873 283.262C645.956 284.561 646.317 285.687 646.958 286.641C647.619 287.593 648.514 288.312 649.642 288.8C650.771 289.287 652.057 289.485 653.5 289.393C654.944 289.302 656.185 288.943 657.222 288.318C658.28 287.692 659.066 286.865 659.58 285.839C660.095 284.812 660.311 283.649 660.228 282.35C660.146 281.05 659.784 279.914 659.142 278.94C658.502 277.986 657.617 277.266 656.489 276.778C655.381 276.29 654.105 276.091 652.661 276.183C651.218 276.275 649.967 276.634 648.909 277.26C647.851 277.886 647.055 278.713 646.52 279.741C646.006 280.789 645.791 281.962 645.873 283.262ZM642.22 308.884L650.915 304.607L651.034 302.565L642.616 302.075L642.868 297.743L664.47 298.999L663.998 307.107C663.901 308.778 663.519 310.184 662.852 311.326C662.206 312.468 661.361 313.299 660.316 313.818C659.291 314.358 658.16 314.593 656.922 314.521C655.498 314.438 654.233 313.95 653.125 313.058C652.039 312.167 651.326 310.893 650.987 309.238L641.929 313.897L642.22 308.884ZM654.283 302.754L654.073 306.375C654.004 307.551 654.232 308.444 654.755 309.054C655.3 309.665 656.077 310 657.088 310.059C658.078 310.116 658.859 309.872 659.429 309.326C660.019 308.78 660.349 307.92 660.417 306.744L660.628 303.123L654.283 302.754ZM654.422 358.092L634.867 347.031L636.095 342.065L652.026 341.82L638.089 334L639.279 329.057L661.713 328.599L660.597 333.114L643.371 332.783L658.626 341.088L657.465 345.783L640.248 345.806L655.546 353.547L654.422 358.092ZM628.325 364.674C629.112 362.807 630.273 361.278 631.808 360.087C633.342 358.895 635.073 358.167 637.001 357.904C638.948 357.648 640.903 357.934 642.864 358.762C644.806 359.581 646.356 360.773 647.512 362.338C648.688 363.91 649.385 365.662 649.602 367.593C649.819 369.524 649.534 371.423 648.747 373.289C647.952 375.174 646.791 376.703 645.264 377.876C643.73 379.068 641.993 379.782 640.054 380.018C638.126 380.281 636.191 380.003 634.249 379.184C632.287 378.357 630.719 377.157 629.543 375.584C628.378 374.038 627.687 372.3 627.47 370.369C627.253 368.438 627.538 366.54 628.325 364.674ZM631.895 366.18C631.389 367.379 631.21 368.549 631.357 369.688C631.524 370.834 632.004 371.878 632.796 372.818C633.588 373.758 634.651 374.509 635.984 375.071C637.317 375.633 638.587 375.866 639.794 375.77C641.02 375.681 642.092 375.293 643.011 374.604C643.93 373.915 644.642 372.97 645.148 371.771C645.654 370.571 645.837 369.392 645.698 368.234C645.55 367.095 645.08 366.056 644.288 365.116C643.515 364.184 642.462 363.437 641.129 362.875C639.796 362.312 638.516 362.076 637.29 362.164C636.064 362.252 634.982 362.637 634.044 363.318C633.118 364.026 632.401 364.98 631.895 366.18ZM628.986 409.159L610.478 397.949L612.726 394.237L624.765 401.528L615.729 389.279L617.432 386.468L632.489 388.774L620.451 381.483L622.699 377.771L641.207 388.98L638.654 393.196L621.327 390.748L631.524 404.969L628.986 409.159ZM619.613 416.078L615.352 412.721L610.843 418.443L608.14 416.313L612.649 410.591L608.144 407.042L603.06 413.495L600.284 411.307L608.054 401.446L625.075 414.856L617.305 424.718L614.529 422.531L619.613 416.078ZM584.701 427.447L587.742 424.352L605.221 427.749L594.63 417.342L597.672 414.246L613.128 429.434L610.086 432.529L592.585 429.11L603.199 439.539L600.157 442.634L584.701 427.447Z" fill="white"/>
<path d="M414.418 261.471C422.368 253.878 430.432 260.143 440.693 259.292H441.177L444.28 262.95H450V302L420.914 299.535C418.037 300.112 413.546 301.014 413.546 301.014C413.546 301.014 410 300.112 407.729 299.535L380 301.014V262.162L385.817 261.931L388.726 259.203C398.759 260.089 403.366 252.399 414.418 261.471ZM414.418 261.471L413.546 293.717M388.726 259.203V290.857M440.693 259.292L445.734 265.514L445.152 297.267C435.081 296.497 419.363 295.295 419.363 295.295C419.363 295.295 415.817 296.497 413.546 297.267C413.546 297.267 410.676 296.322 408.795 295.886C399.293 293.686 383.878 297.267 383.878 297.267V265.021L388.726 259.203M383.878 297.267L388.726 290.857M388.726 290.857C398.419 291.974 402.978 286.518 413.546 293.717M413.546 293.717C420.914 287.8 429.559 291.974 439.82 290.857M413.546 293.717V297.267M439.82 290.857L440.693 259.292M439.82 290.857L445.152 297.267" stroke="#280F5A"/>
<path d="M506.215 261.845C503.885 267.095 504.883 269.463 509.407 273C509.701 270.867 510.527 269.859 513.251 268.414C515.012 267.029 515.592 265.985 516 263.711C515.759 261.269 515.139 260.225 513.251 258.891C514.076 261.261 513.931 262.499 512.867 264.585C513.163 261.926 512.764 260.578 511.137 258.406C507.03 254.984 506.655 252.906 508.426 249C505.392 252.109 505.22 254.381 507.196 259.222C508.731 263.07 508.895 264.562 507.619 265.732C506.161 265.686 505.927 264.717 506.215 261.845Z" fill="#FF984E" stroke="#F59855"/>
<path d="M509 303.5L506.5 277L503 272V268H517.5V272L514.5 277L512.5 303.5H509Z" fill="white"/>
<path d="M506.5 277L509 303.5H512.5L514.5 277M506.5 277L503 272V268H517.5V272L514.5 277M506.5 277H514.5" stroke="#280F5A" stroke-width="0.8"/>
<path d="M412.336 374.538C411.076 374.538 410.008 374.382 409.132 374.07C408.256 373.758 407.59 373.326 407.134 372.774C406.678 372.222 406.45 371.586 406.45 370.866C406.45 370.518 406.516 370.188 406.648 369.876C406.792 369.564 407.026 369.294 407.35 369.066C407.518 368.946 407.722 368.85 407.962 368.778C408.202 368.694 408.49 368.634 408.826 368.598C409.174 368.562 409.594 368.544 410.086 368.544H424L423.982 370.452H410.284C410.092 370.452 409.924 370.458 409.78 370.47C409.648 370.482 409.54 370.506 409.456 370.542C409.372 370.566 409.3 370.602 409.24 370.65C409.108 370.782 409.042 370.938 409.042 371.118C409.042 371.562 409.33 371.922 409.906 372.198C410.482 372.474 411.394 372.612 412.642 372.612H412.858C414.07 372.612 415.096 372.474 415.936 372.198C416.776 371.922 417.454 371.544 417.97 371.064C418.498 370.584 418.888 370.05 419.14 369.462L419.194 368.958C419.254 368.73 419.29 368.502 419.302 368.274C419.326 368.034 419.338 367.812 419.338 367.608C419.338 366.936 419.242 366.318 419.05 365.754C418.858 365.178 418.546 364.698 418.114 364.314C417.694 363.918 417.136 363.66 416.44 363.54C416.308 363.516 416.164 363.504 416.008 363.504C415.864 363.492 415.726 363.486 415.594 363.486C415.258 363.486 414.946 363.528 414.658 363.612C414.37 363.684 414.136 363.816 413.956 364.008C413.776 364.2 413.686 364.476 413.686 364.836C413.686 365.208 413.788 365.502 413.992 365.718C414.196 365.934 414.484 366.042 414.856 366.042C415.168 366.042 415.438 365.946 415.666 365.754C415.894 365.55 416.008 365.184 416.008 364.656C416.008 364.2 415.9 363.786 415.684 363.414C415.48 363.03 415.246 362.676 414.982 362.352L416.872 362.064C417.076 362.244 417.268 362.466 417.448 362.73C417.64 362.994 417.796 363.306 417.916 363.666C418.048 364.014 418.114 364.428 418.114 364.908C418.114 365.328 418.048 365.718 417.916 366.078C417.796 366.438 417.598 366.756 417.322 367.032C417.058 367.308 416.71 367.524 416.278 367.68C415.846 367.824 415.318 367.896 414.694 367.896C414.082 367.896 413.512 367.788 412.984 367.572C412.468 367.356 412.048 367.032 411.724 366.6C411.412 366.156 411.256 365.604 411.256 364.944C411.256 364.176 411.448 363.552 411.832 363.072C412.228 362.592 412.756 362.238 413.416 362.01C414.076 361.782 414.82 361.668 415.648 361.668C416.716 361.668 417.64 361.83 418.42 362.154C419.2 362.478 419.848 362.922 420.364 363.486C420.892 364.038 421.282 364.668 421.534 365.376C421.786 366.072 421.912 366.798 421.912 367.554C421.912 367.818 421.894 368.076 421.858 368.328C421.834 368.568 421.798 368.808 421.75 369.048V369.696C421.39 370.704 420.79 371.568 419.95 372.288C419.11 373.008 418.072 373.56 416.836 373.944C415.6 374.34 414.208 374.538 412.66 374.538H412.336ZM423.838 374.772V361.884H426.52V374.772H423.838Z" fill="white"/>
<path d="M436.766 375.52C437.498 375.676 438.086 376.042 438.53 376.618C438.974 377.182 439.196 377.83 439.196 378.562C439.196 379.618 438.824 380.458 438.08 381.082C437.348 381.694 436.322 382 435.002 382H429.116V369.364H434.804C436.088 369.364 437.09 369.658 437.81 370.246C438.542 370.834 438.908 371.632 438.908 372.64C438.908 373.384 438.71 374.002 438.314 374.494C437.93 374.986 437.414 375.328 436.766 375.52ZM432.194 374.476H434.21C434.714 374.476 435.098 374.368 435.362 374.152C435.638 373.924 435.776 373.594 435.776 373.162C435.776 372.73 435.638 372.4 435.362 372.172C435.098 371.944 434.714 371.83 434.21 371.83H432.194V374.476ZM434.462 379.516C434.978 379.516 435.374 379.402 435.65 379.174C435.938 378.934 436.082 378.592 436.082 378.148C436.082 377.704 435.932 377.356 435.632 377.104C435.344 376.852 434.942 376.726 434.426 376.726H432.194V379.516H434.462Z" fill="white"/>
<path d="M505.562 361H486.812C486.067 361 485.351 361.296 484.824 361.824C484.296 362.351 484 363.067 484 363.812V376.938C484 377.683 484.296 378.399 484.824 378.926C485.351 379.454 486.067 379.75 486.812 379.75H505.562C506.308 379.75 507.024 379.454 507.551 378.926C508.079 378.399 508.375 377.683 508.375 376.938V363.812C508.375 363.067 508.079 362.351 507.551 361.824C507.024 361.296 506.308 361 505.562 361ZM506.5 376.938C506.5 377.186 506.401 377.425 506.225 377.6C506.05 377.776 505.811 377.875 505.562 377.875H486.812C486.564 377.875 486.325 377.776 486.15 377.6C485.974 377.425 485.875 377.186 485.875 376.938V363.812C485.875 363.564 485.974 363.325 486.15 363.15C486.325 362.974 486.564 362.875 486.812 362.875H505.562C505.811 362.875 506.05 362.974 506.225 363.15C506.401 363.325 506.5 363.564 506.5 363.812V376.938ZM500.875 382.562C500.875 382.811 500.776 383.05 500.6 383.225C500.425 383.401 500.186 383.5 499.938 383.5H492.438C492.189 383.5 491.95 383.401 491.775 383.225C491.599 383.05 491.5 382.811 491.5 382.562C491.5 382.314 491.599 382.075 491.775 381.9C491.95 381.724 492.189 381.625 492.438 381.625H499.938C500.186 381.625 500.425 381.724 500.6 381.9C500.776 382.075 500.875 382.314 500.875 382.562Z" fill="#280F5A"/>
<path d="M319.247 573.093L305.361 546.489C317.459 547.192 324.352 546.73 336.786 544.666L333.132 533.733C442.129 496.599 503.776 497.58 614.494 533.733L610.475 542.844C623.881 545.953 631.102 546.881 643.361 546.853L628.745 574.187L641.534 602.249C609.849 601.288 592.978 598.318 564.799 588.4L590.743 586.214C498.687 553.267 447.577 554.139 357.249 586.214L386.847 588.036C355.638 597.749 337.849 601.004 305.361 601.885L319.247 573.093Z" fill="#621B06"/>
<path d="M374.075 544.685L374.987 547.606L378.424 546.532L378.84 547.863L375.403 548.937L376.356 551.987L380.222 550.779L380.638 552.11L375.14 553.828L372.026 543.863L377.524 542.146L377.94 543.477L374.075 544.685ZM380.936 547.66C380.703 546.863 380.66 546.11 380.806 545.4C380.963 544.688 381.275 544.081 381.743 543.579C382.217 543.065 382.805 542.705 383.506 542.5C384.024 542.349 384.566 542.315 385.133 542.399C385.706 542.471 386.196 542.651 386.603 542.938L385.483 539.109L387.138 538.624L390.256 549.277L388.6 549.762L388.25 548.567C388.094 549.03 387.812 549.456 387.406 549.846C387.008 550.233 386.503 550.516 385.888 550.696C385.197 550.898 384.513 550.911 383.836 550.734C383.166 550.544 382.572 550.187 382.053 549.661C381.542 549.124 381.169 548.456 380.936 547.66ZM387.437 545.789C387.277 545.241 387.023 544.8 386.675 544.464C386.336 544.126 385.954 543.904 385.527 543.8C385.101 543.696 384.676 543.705 384.254 543.829C383.832 543.952 383.469 544.173 383.166 544.491C382.86 544.799 382.651 545.189 382.539 545.659C382.433 546.117 382.461 546.62 382.621 547.167C382.781 547.714 383.031 548.161 383.373 548.51C383.724 548.855 384.114 549.084 384.544 549.198C384.98 549.3 385.404 549.291 385.817 549.17C386.239 549.046 386.602 548.825 386.905 548.508C387.207 548.19 387.41 547.797 387.513 547.329C387.623 546.849 387.597 546.336 387.437 545.789ZM397.482 538.735L399.642 546.712L397.991 547.159L397.737 546.218C397.565 546.617 397.293 546.97 396.92 547.278C396.555 547.574 396.136 547.786 395.663 547.914C395.035 548.084 394.435 548.107 393.863 547.982C393.3 547.855 392.805 547.574 392.377 547.141C391.958 546.705 391.651 546.126 391.455 545.402L390.185 540.711L391.821 540.268L393.024 544.712C393.218 545.427 393.545 545.929 394.007 546.218C394.466 546.498 395.004 546.554 395.622 546.387C396.24 546.219 396.676 545.899 396.932 545.426C397.194 544.941 397.228 544.341 397.035 543.626L395.831 539.182L397.482 538.735ZM400.285 542.264C400.082 541.438 400.069 540.674 400.247 539.972C400.431 539.257 400.778 538.657 401.287 538.171C401.796 537.686 402.434 537.349 403.201 537.161C404.172 536.922 405.031 536.958 405.776 537.269C406.53 537.568 407.123 538.117 407.556 538.917L405.764 539.357C405.521 538.995 405.211 538.741 404.836 538.597C404.461 538.452 404.03 538.44 403.545 538.559C402.865 538.726 402.381 539.102 402.092 539.688C401.811 540.262 401.777 540.981 401.989 541.845C402.201 542.709 402.566 543.335 403.084 543.723C403.611 544.108 404.214 544.218 404.894 544.051C405.856 543.814 406.388 543.236 406.491 542.314L408.283 541.874C408.25 542.747 407.973 543.505 407.451 544.148C406.927 544.782 406.189 545.215 405.238 545.449C404.471 545.637 403.749 545.635 403.073 545.44C402.395 545.236 401.809 544.865 401.317 544.327C400.832 543.777 400.487 543.089 400.285 542.264ZM409.131 540.077C408.956 539.266 408.967 538.512 409.165 537.814C409.372 537.115 409.727 536.532 410.23 536.065C410.74 535.587 411.348 535.272 412.051 535.12C412.687 534.983 413.266 534.991 413.79 535.144C414.322 535.285 414.77 535.511 415.133 535.821L414.88 534.648L416.567 534.284L418.309 542.364L416.623 542.727L416.364 541.525C416.162 541.967 415.845 542.368 415.411 542.728C414.977 543.087 414.447 543.335 413.822 543.47C413.128 543.619 412.454 543.58 411.802 543.353C411.147 543.116 410.58 542.716 410.101 542.155C409.629 541.581 409.306 540.889 409.131 540.077ZM415.75 538.68C415.63 538.123 415.408 537.665 415.085 537.305C414.772 536.943 414.406 536.694 413.988 536.559C413.57 536.424 413.146 536.403 412.716 536.496C412.286 536.589 411.909 536.783 411.584 537.078C411.256 537.363 411.02 537.736 410.874 538.198C410.735 538.647 410.726 539.15 410.846 539.707C410.967 540.264 411.184 540.729 411.5 541.101C411.825 541.471 412.198 541.728 412.618 541.872C413.045 542.005 413.469 542.026 413.89 541.936C414.32 541.843 414.697 541.649 415.022 541.354C415.348 541.059 415.578 540.682 415.715 540.222C415.858 539.752 415.87 539.237 415.75 538.68ZM421.181 534.794L422.039 539.288C422.097 539.593 422.208 539.8 422.372 539.912C422.544 540.011 422.801 540.028 423.145 539.963L424.177 539.766L424.444 541.166L423.118 541.419C422.361 541.563 421.748 541.497 421.278 541.22C420.808 540.943 420.496 540.407 420.345 539.611L419.487 535.118L418.529 535.3L418.268 533.93L419.225 533.747L418.84 531.729L420.535 531.405L420.92 533.424L422.894 533.047L423.156 534.417L421.181 534.794ZM432.757 535.377C432.808 535.682 432.834 535.962 432.835 536.215L426.606 537.252C426.764 537.895 427.092 538.377 427.592 538.7C428.092 539.022 428.657 539.131 429.289 539.025C430.196 538.874 430.774 538.388 431.023 537.566L432.843 537.263C432.721 538.054 432.374 538.745 431.804 539.337C431.241 539.917 430.482 540.287 429.525 540.446C428.746 540.576 428.017 540.52 427.338 540.278C426.667 540.024 426.102 539.612 425.641 539.039C425.189 538.456 424.894 537.745 424.754 536.906C424.615 536.068 424.66 535.305 424.89 534.618C425.129 533.919 425.525 533.346 426.079 532.899C426.643 532.451 427.325 532.16 428.124 532.027C428.893 531.899 429.607 531.952 430.264 532.188C430.922 532.423 431.469 532.818 431.906 533.374C432.342 533.92 432.625 534.587 432.757 535.377ZM430.907 535.137C430.794 534.517 430.489 534.056 429.993 533.753C429.496 533.451 428.927 533.353 428.286 533.459C427.704 533.556 427.237 533.827 426.885 534.27C426.532 534.704 426.368 535.244 426.394 535.888L430.907 535.137ZM435.83 539.418C435.523 539.46 435.251 539.391 435.015 539.212C434.778 539.033 434.639 538.789 434.596 538.482C434.554 538.175 434.623 537.903 434.802 537.667C434.981 537.43 435.225 537.29 435.532 537.248C435.829 537.207 436.096 537.276 436.332 537.456C436.569 537.635 436.709 537.878 436.751 538.186C436.793 538.493 436.725 538.765 436.545 539.001C436.366 539.238 436.128 539.377 435.83 539.418ZM439.415 538.935C439.108 538.975 438.837 538.905 438.601 538.724C438.365 538.544 438.227 538.3 438.187 537.992C438.146 537.685 438.217 537.413 438.397 537.178C438.578 536.942 438.822 536.804 439.13 536.764C439.427 536.724 439.694 536.795 439.929 536.976C440.165 537.157 440.303 537.401 440.343 537.708C440.384 538.016 440.314 538.287 440.133 538.523C439.952 538.758 439.713 538.896 439.415 538.935ZM443.005 538.502C442.697 538.536 442.427 538.46 442.195 538.274C441.964 538.088 441.831 537.841 441.797 537.533C441.764 537.225 441.84 536.955 442.026 536.723C442.212 536.492 442.459 536.359 442.767 536.325C443.065 536.293 443.33 536.369 443.562 536.555C443.793 536.741 443.926 536.988 443.96 537.296C443.993 537.605 443.917 537.874 443.731 538.106C443.545 538.338 443.303 538.47 443.005 538.502ZM446.785 528.936L447.064 531.983L450.649 531.655L450.776 533.045L447.191 533.373L447.482 536.554L451.515 536.185L451.642 537.574L445.906 538.099L444.955 527.703L450.691 527.178L450.818 528.567L446.785 528.936ZM463.401 528.643C464.051 528.617 464.636 528.728 465.156 528.978C465.687 529.226 466.107 529.61 466.419 530.128C466.74 530.645 466.915 531.279 466.946 532.028L467.142 536.899L465.449 536.967L465.262 532.351C465.232 531.612 465.025 531.055 464.639 530.68C464.254 530.295 463.741 530.116 463.101 530.141C462.462 530.167 461.96 530.388 461.597 530.803C461.243 531.207 461.081 531.779 461.111 532.519L461.297 537.135L459.603 537.203L459.417 532.587C459.387 531.848 459.18 531.29 458.794 530.916C458.408 530.531 457.896 530.352 457.256 530.377C456.617 530.403 456.115 530.624 455.752 531.039C455.398 531.443 455.236 532.015 455.265 532.755L455.452 537.371L453.743 537.44L453.41 529.181L455.118 529.112L455.157 530.057C455.423 529.706 455.767 529.427 456.189 529.219C456.611 529.012 457.066 528.899 457.556 528.879C458.216 528.852 458.811 528.968 459.342 529.227C459.872 529.486 460.288 529.875 460.59 530.393C460.819 529.883 461.193 529.473 461.711 529.162C462.228 528.841 462.792 528.668 463.401 528.643ZM471.111 529.842C471.406 529.466 471.805 529.151 472.308 528.897C472.811 528.643 473.378 528.52 474.008 528.528C474.727 528.537 475.38 528.725 475.966 529.092C476.561 529.45 477.025 529.951 477.357 530.595C477.689 531.239 477.85 531.976 477.84 532.806C477.83 533.636 477.65 534.379 477.302 535.034C476.954 535.68 476.478 536.184 475.873 536.547C475.279 536.9 474.622 537.071 473.902 537.062C473.272 537.055 472.714 536.923 472.227 536.667C471.74 536.401 471.344 536.076 471.039 535.692L470.975 540.822L469.265 540.8L469.416 528.606L471.126 528.627L471.111 529.842ZM476.1 532.784C476.107 532.214 475.993 531.723 475.758 531.31C475.533 530.887 475.227 530.568 474.84 530.354C474.463 530.129 474.054 530.014 473.614 530.008C473.184 530.003 472.773 530.108 472.38 530.323C471.997 530.538 471.684 530.855 471.438 531.272C471.203 531.689 471.082 532.182 471.075 532.752C471.068 533.322 471.177 533.823 471.401 534.256C471.636 534.679 471.942 535.003 472.319 535.228C472.707 535.453 473.115 535.568 473.545 535.573C473.985 535.578 474.397 535.473 474.779 535.258C475.172 535.033 475.486 534.707 475.721 534.28C475.967 533.853 476.093 533.354 476.1 532.784ZM483.048 537.385C482.269 537.34 481.575 537.126 480.966 536.74C480.358 536.345 479.892 535.818 479.569 535.159C479.246 534.489 479.109 533.73 479.157 532.882C479.205 532.043 479.432 531.31 479.838 530.682C480.245 530.054 480.777 529.583 481.436 529.27C482.095 528.957 482.819 528.823 483.607 528.868C484.396 528.913 485.1 529.128 485.719 529.514C486.338 529.899 486.814 530.427 487.146 531.097C487.479 531.767 487.621 532.521 487.574 533.36C487.526 534.199 487.294 534.932 486.878 535.559C486.461 536.187 485.914 536.661 485.234 536.983C484.565 537.296 483.837 537.43 483.048 537.385ZM483.132 535.902C483.571 535.927 483.987 535.846 484.378 535.657C484.779 535.47 485.112 535.173 485.375 534.768C485.639 534.362 485.787 533.86 485.821 533.26C485.856 532.661 485.769 532.151 485.563 531.728C485.357 531.296 485.071 530.964 484.703 530.733C484.336 530.502 483.932 530.374 483.493 530.349C483.054 530.324 482.638 530.405 482.247 530.593C481.866 530.782 481.553 531.08 481.31 531.487C481.067 531.883 480.928 532.381 480.894 532.98C480.844 533.869 481.029 534.571 481.451 535.085C481.883 535.591 482.443 535.863 483.132 535.902ZM500.894 530.526L497.514 538.493L495.723 538.313L494.678 532.072L492.41 537.979L490.619 537.799L488.879 529.317L490.611 529.491L491.661 536.276L494.073 529.84L495.849 530.019L496.858 536.769L499.222 530.358L500.894 530.526ZM509.437 535.689C509.393 535.996 509.335 536.27 509.26 536.512L503.007 535.629C502.964 536.29 503.133 536.849 503.512 537.306C503.892 537.764 504.399 538.037 505.033 538.127C505.944 538.256 506.641 537.965 507.125 537.256L508.952 537.514C508.598 538.231 508.06 538.787 507.338 539.18C506.627 539.564 505.792 539.688 504.831 539.553C504.049 539.442 503.371 539.17 502.796 538.735C502.232 538.292 501.817 537.728 501.55 537.044C501.294 536.352 501.226 535.585 501.345 534.743C501.463 533.901 501.736 533.188 502.162 532.601C502.599 532.007 503.15 531.579 503.812 531.32C504.485 531.061 505.223 530.988 506.025 531.102C506.797 531.211 507.461 531.476 508.018 531.898C508.574 532.32 508.977 532.862 509.227 533.523C509.479 534.175 509.549 534.897 509.437 535.689ZM507.745 534.904C507.823 534.279 507.671 533.748 507.288 533.31C506.906 532.872 506.393 532.608 505.749 532.517C505.165 532.435 504.638 532.552 504.169 532.87C503.702 533.177 503.383 533.642 503.215 534.265L507.745 534.904ZM513.367 533.573C513.684 533.201 514.064 532.936 514.507 532.778C514.962 532.612 515.47 532.577 516.032 532.673L515.733 534.418L515.305 534.345C514.644 534.232 514.113 534.314 513.711 534.59C513.318 534.868 513.051 535.421 512.91 536.249L512.177 540.537L510.491 540.249L511.884 532.102L513.569 532.39L513.367 533.573ZM516.82 541.472C516.516 541.414 516.28 541.262 516.113 541.016C515.946 540.771 515.892 540.495 515.95 540.191C516.008 539.886 516.159 539.651 516.405 539.484C516.651 539.317 516.926 539.262 517.23 539.32C517.525 539.376 517.756 539.527 517.923 539.773C518.09 540.018 518.144 540.294 518.086 540.598C518.028 540.903 517.876 541.138 517.631 541.305C517.385 541.472 517.115 541.528 516.82 541.472ZM520.373 542.155C520.069 542.096 519.833 541.943 519.667 541.697C519.501 541.451 519.448 541.176 519.507 540.871C519.566 540.567 519.718 540.332 519.965 540.166C520.211 540 520.486 539.946 520.79 540.005C521.085 540.062 521.315 540.214 521.481 540.46C521.647 540.706 521.701 540.982 521.642 541.286C521.583 541.59 521.43 541.825 521.184 541.992C520.938 542.158 520.667 542.212 520.373 542.155ZM523.915 542.881C523.612 542.815 523.38 542.658 523.219 542.408C523.058 542.159 523.01 541.883 523.075 541.58C523.141 541.277 523.298 541.045 523.548 540.884C523.797 540.722 524.074 540.675 524.377 540.74C524.67 540.803 524.897 540.96 525.058 541.209C525.219 541.459 525.267 541.735 525.202 542.038C525.136 542.341 524.979 542.573 524.729 542.734C524.48 542.895 524.208 542.944 523.915 542.881ZM530.477 534.971L529.796 537.954L533.305 538.755L532.995 540.115L529.485 539.314L528.774 542.429L532.723 543.33L532.412 544.69L526.797 543.409L529.12 533.23L534.736 534.512L534.425 535.872L530.477 534.971ZM538.769 534.805L536.122 545.585L534.461 545.177L537.108 534.397L538.769 534.805ZM546.728 543.884C546.649 544.184 546.558 544.45 546.456 544.681L540.35 543.067C540.23 543.718 540.331 544.293 540.655 544.792C540.978 545.291 541.449 545.623 542.067 545.786C542.957 546.021 543.684 545.815 544.248 545.168L546.032 545.639C545.596 546.31 544.996 546.798 544.233 547.103C543.482 547.401 542.637 547.426 541.699 547.178C540.936 546.976 540.294 546.626 539.774 546.126C539.267 545.62 538.921 545.011 538.736 544.301C538.564 543.583 538.587 542.813 538.804 541.991C539.021 541.169 539.376 540.493 539.868 539.961C540.373 539.422 540.969 539.062 541.658 538.882C542.357 538.705 543.098 538.72 543.881 538.927C544.635 539.126 545.263 539.468 545.766 539.953C546.269 540.437 546.606 541.023 546.776 541.709C546.949 542.386 546.933 543.111 546.728 543.884ZM545.141 542.906C545.292 542.294 545.203 541.749 544.875 541.269C544.547 540.789 544.069 540.466 543.44 540.3C542.87 540.149 542.333 540.204 541.83 540.464C541.329 540.714 540.958 541.138 540.718 541.737L545.141 542.906ZM550.733 547.935L554.835 542.102L556.58 542.602L551.279 549.682L549.318 549.121L548.576 540.313L550.335 540.816L550.733 547.935ZM556.221 546.77C556.464 545.976 556.842 545.323 557.355 544.811C557.877 544.301 558.471 543.966 559.138 543.804C559.817 543.636 560.501 543.657 561.189 543.868C561.811 544.058 562.313 544.348 562.695 544.737C563.091 545.12 563.371 545.535 563.537 545.984L563.889 544.836L565.538 545.342L563.117 553.244L561.467 552.739L561.828 551.563C561.436 551.85 560.963 552.045 560.409 552.148C559.855 552.25 559.272 552.207 558.66 552.019C557.981 551.811 557.412 551.449 556.954 550.932C556.498 550.405 556.198 549.78 556.054 549.056C555.922 548.325 555.978 547.563 556.221 546.77ZM562.68 548.78C562.847 548.235 562.878 547.727 562.771 547.255C562.674 546.786 562.476 546.391 562.178 546.069C561.879 545.747 561.519 545.522 561.098 545.393C560.678 545.264 560.253 545.249 559.826 545.348C559.401 545.438 559.012 545.648 558.659 545.979C558.319 546.304 558.066 546.739 557.899 547.284C557.732 547.829 557.695 548.34 557.789 548.819C557.893 549.3 558.093 549.707 558.388 550.038C558.697 550.363 559.057 550.588 559.468 550.714C559.888 550.843 560.313 550.858 560.741 550.759C561.168 550.66 561.554 550.443 561.897 550.109C562.252 549.768 562.513 549.325 562.68 548.78ZM569.276 548.001L567.864 552.352C567.769 552.647 567.766 552.883 567.856 553.059C567.958 553.229 568.176 553.368 568.509 553.476L569.508 553.8L569.068 555.156L567.784 554.739C567.051 554.501 566.546 554.148 566.267 553.679C565.988 553.21 565.973 552.59 566.223 551.82L567.635 547.468L566.708 547.167L567.139 545.84L568.066 546.141L568.7 544.187L570.341 544.719L569.707 546.674L571.619 547.294L571.188 548.621L569.276 548.001ZM579.124 553.955C579.026 554.249 578.917 554.508 578.8 554.732L572.814 552.722C572.651 553.363 572.714 553.944 573.004 554.463C573.294 554.982 573.742 555.344 574.349 555.548C575.221 555.841 575.96 555.683 576.565 555.074L578.314 555.661C577.835 556.302 577.205 556.75 576.423 557.004C575.654 557.252 574.81 557.222 573.89 556.913C573.141 556.661 572.524 556.269 572.038 555.737C571.565 555.198 571.26 554.568 571.122 553.847C570.997 553.119 571.07 552.353 571.341 551.547C571.612 550.741 572.01 550.089 572.536 549.591C573.075 549.086 573.694 548.766 574.393 548.632C575.102 548.501 575.84 548.564 576.608 548.822C577.347 549.07 577.952 549.453 578.422 549.969C578.892 550.486 579.189 551.092 579.314 551.788C579.442 552.474 579.379 553.197 579.124 553.955ZM577.604 552.875C577.795 552.275 577.743 551.724 577.447 551.224C577.15 550.724 576.694 550.37 576.078 550.163C575.519 549.975 574.98 549.995 574.46 550.221C573.944 550.438 573.547 550.837 573.267 551.419L577.604 552.875Z" fill="white"/>
<path d="M452.375 496.667L455.083 484.958L446 477.083L458 476.042L462.667 465L467.333 476.042L479.333 477.083L470.25 484.958L472.958 496.667L462.667 490.458L452.375 496.667Z" fill="white"/>
<defs>
<clipPath id="clip0_97_158">
<rect width="78.8367" height="78.8367" fill="white" transform="translate(416 131.281) rotate(-11.9181)"/>
</clipPath>
</defs>
</svg>
